<svg width="286" height="212" viewBox="0 0 286 212" fill="none" xmlns="http://www.w3.org/2000/svg">
<path fill-rule="evenodd" clip-rule="evenodd" d="M180.167 186.18C202.109 192.436 224.949 197.221 244.104 210.244C245.247 211.016 246.799 210.726 247.58 209.585C248.352 208.442 248.062 206.89 246.922 206.109C227.318 192.783 203.99 187.769 181.537 181.37C180.212 180.985 178.822 181.761 178.447 183.09C178.062 184.416 178.841 185.795 180.167 186.18Z" fill="white"/>
<path fill-rule="evenodd" clip-rule="evenodd" d="M186.492 153.608C195.017 149.06 203.758 146.263 213.447 146.265C214.831 146.267 215.948 145.146 215.954 143.767C215.951 142.386 214.826 141.265 213.452 141.267C202.916 141.263 193.411 144.255 184.144 149.197C182.923 149.845 182.458 151.36 183.112 152.579C183.758 153.795 185.28 154.259 186.492 153.608Z" fill="white"/>
<path fill-rule="evenodd" clip-rule="evenodd" d="M185.268 79.5072C191.228 69.5078 199.636 62.6566 210.746 59.0147C212.055 58.5847 212.773 57.1715 212.338 55.8595C211.913 54.5499 210.498 53.8338 209.188 54.2638C196.892 58.2975 187.573 65.8753 180.973 76.9465C180.264 78.1303 180.66 79.6691 181.841 80.374C183.031 81.0824 184.568 80.6935 185.268 79.5072Z" fill="white"/>
<path fill-rule="evenodd" clip-rule="evenodd" d="M80.3184 36.6336C77.8676 38.3567 75.5659 40.3014 73.4761 42.4652C72.5446 43.4283 70.7999 45.5359 70.0924 47.5478C69.3307 49.6891 69.5967 51.7313 71.2609 53.2019C73.472 55.1532 75.5398 55.5456 77.3104 55.171C79.015 54.8122 80.5781 53.6441 81.8359 51.8606C84.2382 48.4514 85.5221 42.622 85.6309 39.1337C88.1706 37.5855 90.8541 36.2801 93.6385 35.2229C114.378 27.3502 138.891 38.5903 153.856 62.2793C159.092 70.5727 158.884 85.0847 156.799 100.26C153.556 123.889 145.378 149.1 143.22 156.548C142.692 158.388 142.581 159.533 142.621 159.778C142.796 160.976 143.526 161.465 144.06 161.717C144.836 162.073 145.524 162.086 146.117 161.95C146.92 161.762 147.671 161.258 148.203 160.319C148.493 159.799 148.733 159.033 148.928 158.2C149.058 157.621 149.104 156.963 149.327 156.582C150.765 154.143 152.342 151.806 153.904 149.445C159.134 141.505 165.093 134.338 171.476 127.291C191.754 104.899 211.966 80.9248 239.318 66.9502C240.545 66.3229 241.039 64.8167 240.407 63.5868C239.785 62.3595 238.279 61.872 237.043 62.4977C209.144 76.747 188.451 101.1 167.77 123.934C162.342 129.929 157.211 136.011 152.559 142.559C156.172 129.78 160.676 111.964 162.404 95.614C163.942 81.0737 163.171 67.6712 158.081 59.6091C141.688 33.6583 114.576 21.9223 91.8645 30.5493C89.4349 31.4732 87.0646 32.5674 84.7946 33.8322C79.4551 13.1042 59.8486 0.268492 38.609 4.01459C37.2456 4.25308 36.3408 5.5516 36.5776 6.90948C36.8241 8.26986 38.1177 9.17753 39.4812 8.93904C58.6205 5.56378 76.2219 17.5666 80.3184 36.6336ZM80.1488 43.0659C79.0777 43.97 78.054 44.9299 77.0688 45.941C76.5455 46.4851 75.6085 47.549 75.0365 48.6797C74.9057 48.9453 74.7821 49.3823 74.7294 49.5856C75.312 50.0878 75.7935 50.3821 76.2749 50.2786C76.8755 50.1533 77.3073 49.604 77.7481 48.9797C78.8565 47.4137 79.6661 45.167 80.1488 43.0659Z" fill="white"/>
</svg>
