<svg width="166" height="57" viewBox="0 0 166 57" fill="none" xmlns="http://www.w3.org/2000/svg">
<path d="M23.6619 0L0 15.681V15.7106L18.297 27.8298L23.6619 24.2678V0Z" fill="#7152F3"/>
<path d="M0 39.9931L23.6619 55.6591V31.3914L18.297 27.8296L0 39.9487V39.9931Z" fill="#7152F3"/>
<path d="M49.6441 16.0656L25.9824 0.384521V24.6524L31.3621 28.2142L49.6441 16.0951V16.0656Z" fill="#7152F3"/>
<path d="M25.9824 56.0441L49.6441 40.3628V40.3332L31.3621 28.2141L25.9824 31.776V56.0441Z" fill="#7152F3"/>
<path d="M0 15.7107V39.949L18.297 27.8298L0 15.7107Z" fill="#251164"/>
<path d="M49.6448 40.3333V16.095L31.3623 28.2142L49.6448 40.3333Z" fill="#251164"/>
<path d="M77.8535 41.8461V15.6922H81.8887V41.8461H77.8535ZM60.7788 41.8461V15.6922H64.814V41.8461H60.7788ZM62.5349 30.7494V26.8637H79.647V30.7494H62.5349Z" fill="#07050F"/>
<path d="M89.2022 41.8461V15.6922H100.336C101.831 15.6922 103.201 16.0659 104.446 16.8131C105.716 17.5355 106.725 18.5318 107.472 19.8021C108.22 21.0475 108.593 22.4549 108.593 24.0241C108.593 25.4439 108.22 26.764 107.472 27.9845C106.725 29.2051 105.729 30.1889 104.483 30.9362C103.238 31.6585 101.856 32.0197 100.336 32.0197H93.2373V41.8461H89.2022ZM104.745 41.8461L98.0945 30.0395L102.242 29.1054L109.64 41.8835L104.745 41.8461ZM93.2373 28.134H100.71C101.432 28.134 102.08 27.9596 102.653 27.6109C103.226 27.2373 103.674 26.7391 103.998 26.1164C104.322 25.4688 104.483 24.7589 104.483 23.9867C104.483 23.1149 104.272 22.3552 103.848 21.7076C103.45 21.0351 102.877 20.512 102.13 20.1384C101.407 19.7648 100.585 19.5779 99.6637 19.5779H93.2373V28.134Z" fill="#07050F"/>
<path d="M115.181 41.8461V15.6922H119.141L128.669 31.1977L126.763 31.1604L136.403 15.6922H140.139V41.8461H136.104V31.123C136.104 28.8813 136.154 26.8637 136.253 25.0703C136.378 23.2769 136.577 21.4959 136.851 19.7274L137.374 21.1098L128.818 34.3362H126.352L118.058 21.2593L118.469 19.7274C118.743 21.3963 118.93 23.1149 119.029 24.8834C119.154 26.627 119.216 28.7069 119.216 31.123V41.8461H115.181Z" fill="#07050F"/>
<path d="M155.542 42.2197C154.122 42.2197 152.802 42.0329 151.582 41.6593C150.386 41.2857 149.29 40.7252 148.294 39.978C147.322 39.2058 146.451 38.2593 145.678 37.1384L148.443 33.9626C149.664 35.7062 150.834 36.9142 151.955 37.5868C153.076 38.2593 154.409 38.5955 155.953 38.5955C156.9 38.5955 157.759 38.4461 158.531 38.1472C159.303 37.8483 159.914 37.4373 160.362 36.9142C160.81 36.3911 161.035 35.7933 161.035 35.1208C161.035 34.6725 160.96 34.249 160.81 33.8505C160.661 33.4519 160.424 33.0908 160.1 32.767C159.802 32.4432 159.403 32.1443 158.905 31.8703C158.432 31.5963 157.871 31.3596 157.224 31.1604C156.576 30.9362 155.829 30.7494 154.982 30.5999C153.637 30.3259 152.466 29.9648 151.47 29.5164C150.473 29.0681 149.639 28.5076 148.966 27.8351C148.294 27.1626 147.796 26.4029 147.472 25.556C147.148 24.6842 146.986 23.7127 146.986 22.6417C146.986 21.5955 147.21 20.6241 147.659 19.7274C148.132 18.8307 148.767 18.0585 149.564 17.4109C150.386 16.7384 151.345 16.2278 152.441 15.879C153.537 15.5054 154.72 15.3186 155.991 15.3186C157.336 15.3186 158.569 15.493 159.689 15.8417C160.81 16.1904 161.807 16.7135 162.678 17.4109C163.55 18.0834 164.273 18.9179 164.845 19.9142L162.006 22.7164C161.508 21.8944 160.947 21.2094 160.325 20.6615C159.702 20.0886 159.017 19.6651 158.27 19.3911C157.522 19.0922 156.725 18.9428 155.878 18.9428C154.907 18.9428 154.06 19.0922 153.338 19.3911C152.615 19.69 152.043 20.1135 151.619 20.6615C151.221 21.1845 151.021 21.8073 151.021 22.5296C151.021 23.0527 151.121 23.5384 151.32 23.9867C151.519 24.4102 151.818 24.7963 152.217 25.145C152.64 25.4688 153.201 25.7677 153.898 26.0417C154.596 26.2908 155.43 26.5149 156.402 26.7142C157.771 27.0131 158.992 27.3992 160.063 27.8725C161.134 28.3208 162.043 28.8563 162.791 29.4791C163.538 30.1018 164.098 30.7992 164.472 31.5714C164.87 32.3435 165.07 33.178 165.07 34.0747C165.07 35.7435 164.684 37.1882 163.911 38.4087C163.139 39.6292 162.043 40.5758 160.624 41.2483C159.204 41.8959 157.51 42.2197 155.542 42.2197Z" fill="#07050F"/>
</svg>
