<svg width="148" height="51" viewBox="0 0 148 51" fill="none" xmlns="http://www.w3.org/2000/svg">
<path d="M21.1267 0L0 14.0009V14.0273L16.3366 24.848L21.1267 21.6677V0Z" fill="white"/>
<path d="M0 35.7084L21.1267 49.696V28.0284L16.3366 24.8481L0 35.6688V35.7084Z" fill="white"/>
<path d="M44.325 14.3442L23.1985 0.343262V22.011L28.0018 25.1912L44.325 14.3705V14.3442Z" fill="white"/>
<path d="M23.1985 50.0391L44.325 36.038V36.0116L28.0018 25.1909L23.1985 28.3711V50.0391Z" fill="white"/>
<path d="M0 14.0273V35.6687L16.3366 24.848L0 14.0273Z" fill="#DFDFDF"/>
<path d="M44.3259 36.012V14.3706L28.0022 25.1913L44.3259 36.012Z" fill="#DFDFDF"/>
<path d="M69.5121 37.3625V14.0108H73.115V37.3625H69.5121ZM54.2668 37.3625V14.0108H57.8697V37.3625H54.2668ZM55.8347 27.4547V23.9853H71.1134V27.4547H55.8347Z" fill="white"/>
<path d="M79.6448 37.3625V14.0108H89.586C90.9204 14.0108 92.1435 14.3444 93.2555 15.0116C94.3897 15.6566 95.2905 16.5462 95.9576 17.6804C96.6248 18.7924 96.9584 20.0489 96.9584 21.45C96.9584 22.7177 96.6248 23.8964 95.9576 24.9861C95.2905 26.0759 94.4009 26.9543 93.2889 27.6215C92.1769 28.2665 90.9426 28.589 89.586 28.589H83.2477V37.3625H79.6448ZM93.5224 37.3625L87.5844 26.8209L91.2873 25.9869L97.8925 37.3959L93.5224 37.3625ZM83.2477 25.1196H89.9196C90.5645 25.1196 91.1428 24.9639 91.6543 24.6525C92.1658 24.3189 92.5661 23.8741 92.8552 23.3181C93.1443 22.7399 93.2889 22.1061 93.2889 21.4167C93.2889 20.6383 93.0998 19.96 92.7218 19.3817C92.3659 18.7813 91.8544 18.3142 91.1872 17.9806C90.5423 17.647 89.8084 17.4802 88.9855 17.4802H83.2477V25.1196Z" fill="white"/>
<path d="M102.84 37.3625V14.0108H106.376L114.883 27.855L113.182 27.8217L121.788 14.0108H125.124V37.3625H121.521V27.7883C121.521 25.7868 121.566 23.9853 121.655 22.3841C121.766 20.7828 121.944 19.1927 122.189 17.6137L122.656 18.848L115.016 30.6572H112.815L105.409 18.9814L105.776 17.6137C106.02 19.1037 106.187 20.6383 106.276 22.2173C106.387 23.7741 106.443 25.6311 106.443 27.7883V37.3625H102.84Z" fill="white"/>
<path d="M138.877 37.6961C137.609 37.6961 136.431 37.5293 135.341 37.1957C134.273 36.8621 133.295 36.3617 132.405 35.6945C131.538 35.0051 130.76 34.16 130.07 33.1592L132.539 30.3236C133.628 31.8804 134.674 32.959 135.674 33.5595C136.675 34.16 137.865 34.4602 139.244 34.4602C140.089 34.4602 140.856 34.3268 141.546 34.0599C142.235 33.793 142.78 33.4261 143.18 32.959C143.581 32.492 143.781 31.9583 143.781 31.3578C143.781 30.9575 143.714 30.5794 143.581 30.2236C143.447 29.8677 143.236 29.5453 142.947 29.2561C142.68 28.967 142.324 28.7001 141.879 28.4555C141.457 28.2109 140.956 27.9996 140.378 27.8217C139.8 27.6215 139.133 27.4547 138.377 27.3213C137.176 27.0767 136.13 26.7542 135.241 26.3539C134.351 25.9535 133.606 25.4532 133.006 24.8527C132.405 24.2522 131.96 23.5739 131.671 22.8178C131.382 22.0394 131.238 21.172 131.238 20.2157C131.238 19.2816 131.438 18.4143 131.838 17.6137C132.261 16.813 132.828 16.1236 133.539 15.5454C134.273 14.9449 135.13 14.489 136.108 14.1776C137.087 13.844 138.143 13.6772 139.277 13.6772C140.478 13.6772 141.579 13.8329 142.58 14.1443C143.581 14.4556 144.47 14.9227 145.249 15.5454C146.027 16.1458 146.672 16.8909 147.184 17.7805L144.648 20.2824C144.203 19.5485 143.703 18.9369 143.147 18.4477C142.591 17.9361 141.979 17.5581 141.312 17.3134C140.645 17.0466 139.933 16.9131 139.177 16.9131C138.31 16.9131 137.554 17.0466 136.909 17.3134C136.264 17.5803 135.752 17.9584 135.374 18.4477C135.018 18.9147 134.841 19.4707 134.841 20.1156C134.841 20.5827 134.929 21.0163 135.107 21.4167C135.285 21.7947 135.552 22.1394 135.908 22.4508C136.286 22.7399 136.786 23.0068 137.409 23.2514C138.032 23.4738 138.777 23.674 139.644 23.8519C140.867 24.1188 141.957 24.4635 142.914 24.886C143.87 25.2864 144.682 25.7645 145.349 26.3205C146.016 26.8765 146.516 27.4992 146.85 28.1886C147.206 28.8781 147.384 29.6231 147.384 30.4237C147.384 31.9138 147.039 33.2037 146.35 34.2934C145.66 35.3832 144.682 36.2283 143.414 36.8288C142.146 37.407 140.634 37.6961 138.877 37.6961Z" fill="white"/>
</svg>
