<svg width="3119" height="3162" viewBox="0 0 3119 3162" fill="none" xmlns="http://www.w3.org/2000/svg">
<path d="M0.308594 1337.94C26.9941 1317.04 136.539 1456.96 163.238 1436.06C189.938 1415.15 80.3793 1275.25 107.079 1254.34C133.779 1233.44 243.309 1373.37 270.009 1352.47C296.709 1331.56 187.15 1191.65 213.849 1170.75C240.549 1149.85 350.08 1289.78 376.779 1268.87C403.479 1247.97 293.92 1108.06 320.62 1087.16C347.32 1066.26 456.85 1206.19 483.55 1185.28C510.25 1164.38 400.691 1024.47 427.376 1003.58C454.062 982.686 563.62 1122.59 590.363 1101.66C617.106 1080.72 507.504 940.845 534.189 919.952C560.875 899.06 670.448 1038.96 697.076 1018.11C723.705 997.261 614.217 857.297 640.988 836.338C667.76 815.378 777.219 955.364 803.904 934.472C830.59 913.579 721.059 773.649 747.745 752.757C774.43 731.864 883.975 871.783 910.674 850.88C937.374 829.976 827.815 690.068 854.501 669.176C881.186 648.283 990.745 788.191 1017.44 767.288C1044.14 746.384 934.586 606.476 961.285 585.573C987.985 564.669 1097.52 704.599 1124.22 683.695C1150.92 662.792 1041.36 522.884 1068.06 501.98C1094.76 481.077 1204.29 621.007 1230.99 600.103C1257.69 579.2 1148.13 439.292 1174.83 418.388C1201.53 397.484 1311.06 537.415 1337.76 516.511C1364.46 495.607 1254.91 355.688 1281.6 334.796C1308.28 313.904 1417.84 453.811 1444.53 432.919C1471.21 412.026 1361.68 272.096 1388.37 251.204C1415.05 230.311 1524.61 370.219 1551.31 349.316C1578.01 328.412 1468.45 188.504 1495.15 167.6C1521.85 146.697 1631.4 286.616 1658.08 265.723C1684.77 244.831 1575.24 104.901 1601.94 83.9972C1628.64 63.0936 1738.18 203.012 1764.88 182.109C1791.58 161.205 1682.04 21.2862 1708.72 0.393799M225.149 1625.12C251.835 1604.23 361.379 1744.15 388.079 1723.24C414.779 1702.34 305.22 1562.43 331.92 1541.53C358.62 1520.62 468.15 1660.55 494.85 1639.65C521.549 1618.75 411.99 1478.84 438.69 1457.94C465.39 1437.03 574.92 1576.96 601.62 1556.06C628.32 1535.16 518.761 1395.25 545.461 1374.34C572.16 1353.44 681.691 1493.37 708.391 1472.47C735.09 1451.56 625.531 1311.66 652.217 1290.76C678.902 1269.87 788.461 1409.78 815.204 1388.84C841.947 1367.9 732.345 1228.03 759.03 1207.14C785.716 1186.24 895.289 1326.14 921.917 1305.29C948.545 1284.45 839.058 1144.48 865.829 1123.52C892.6 1102.56 1002.06 1242.55 1028.74 1221.66C1055.43 1200.76 945.9 1060.83 972.585 1039.94C999.271 1019.05 1108.82 1158.97 1135.52 1138.06C1162.22 1117.16 1052.66 977.253 1079.34 956.361C1106.03 935.468 1215.59 1075.38 1242.29 1054.47C1268.99 1033.57 1159.43 893.661 1186.13 872.757C1212.83 851.854 1322.36 991.784 1349.06 970.88C1375.76 949.977 1266.2 810.069 1292.9 789.165C1319.6 768.262 1429.13 908.192 1455.83 887.288C1482.53 866.385 1372.97 726.477 1399.67 705.573C1426.37 684.669 1535.9 824.6 1562.6 803.696C1589.3 782.792 1479.75 642.873 1506.44 621.981C1533.12 601.089 1642.68 740.996 1669.37 720.104C1696.05 699.211 1586.52 559.281 1613.21 538.389C1639.89 517.496 1749.45 657.404 1776.15 636.501C1802.85 615.597 1693.29 475.689 1719.99 454.785C1746.69 433.882 1856.24 573.801 1882.92 552.908C1909.61 532.016 1800.08 392.086 1826.78 371.182C1853.48 350.279 1963.02 490.197 1989.72 469.294C2016.42 448.39 1906.88 308.471 1933.56 287.579M620.126 2129.61C646.811 2108.72 756.356 2248.64 783.055 2227.74C809.755 2206.83 700.196 2066.93 726.896 2046.02C753.596 2025.12 863.126 2165.05 889.826 2144.15C916.526 2123.24 806.967 1983.33 833.667 1962.43C860.366 1941.53 969.897 2081.46 996.596 2060.55C1023.3 2039.65 913.737 1899.74 940.437 1878.84C967.137 1857.93 1076.67 1997.86 1103.37 1976.96C1130.07 1956.06 1020.51 1816.15 1047.19 1795.26C1073.88 1774.36 1183.44 1914.27 1210.18 1893.33C1236.92 1872.4 1127.32 1732.52 1154.01 1711.63C1180.69 1690.74 1290.27 1830.64 1316.89 1809.79C1343.52 1788.94 1234.03 1648.98 1260.81 1628.02C1287.58 1607.06 1397.04 1747.04 1423.72 1726.15C1450.41 1705.26 1340.88 1565.33 1367.56 1544.44C1394.25 1523.54 1503.79 1663.46 1530.49 1642.56C1557.19 1621.65 1447.63 1481.75 1474.32 1460.85C1501 1439.96 1610.56 1579.87 1637.26 1558.97C1663.96 1538.06 1554.4 1398.15 1581.1 1377.25C1607.8 1356.35 1717.33 1496.28 1744.03 1475.37C1770.73 1454.47 1661.17 1314.56 1687.87 1293.66C1714.57 1272.76 1824.1 1412.69 1850.8 1391.78C1877.5 1370.88 1767.94 1230.97 1794.64 1210.07C1821.34 1189.16 1930.87 1329.09 1957.57 1308.19C1984.27 1287.29 1874.73 1147.37 1901.41 1126.47C1928.1 1105.58 2037.66 1245.49 2064.34 1224.6C2091.03 1203.71 1981.5 1063.78 2008.18 1042.88C2034.87 1021.99 2144.43 1161.9 2171.13 1140.99C2197.83 1120.09 2088.27 980.183 2114.97 959.279C2141.67 938.376 2251.21 1078.29 2277.9 1057.4C2304.58 1036.51 2195.05 896.58 2221.75 875.676C2248.45 854.772 2358 994.691 2384.7 973.788C2411.4 952.884 2301.85 812.965 2328.54 792.073M1185.24 2851.42C1211.92 2830.53 1321.47 2970.44 1348.17 2949.54C1374.87 2928.64 1265.31 2788.73 1292.01 2767.83C1318.71 2746.92 1428.24 2886.85 1454.94 2865.95C1481.64 2845.05 1372.08 2705.14 1398.78 2684.23C1425.48 2663.33 1535.01 2803.26 1561.71 2782.36C1588.41 2761.45 1478.85 2621.55 1505.55 2600.64C1532.25 2579.74 1641.78 2719.67 1668.48 2698.76C1695.18 2677.86 1585.62 2537.95 1612.3 2517.06C1638.99 2496.17 1748.55 2636.08 1775.29 2615.14C1802.03 2594.2 1692.43 2454.33 1719.12 2433.44C1745.8 2412.54 1855.38 2552.44 1882.01 2531.59C1908.63 2510.74 1799.15 2370.78 1825.92 2349.82C1852.69 2328.86 1962.15 2468.85 1988.83 2447.95C2015.52 2427.06 1905.99 2287.13 1932.67 2266.24C1959.36 2245.35 2068.9 2385.27 2095.6 2364.36C2122.3 2343.46 2012.74 2203.55 2039.43 2182.66C2066.12 2161.77 2175.67 2301.67 2202.37 2280.77C2229.07 2259.87 2119.51 2119.96 2146.21 2099.06C2172.91 2078.15 2282.44 2218.08 2309.14 2197.18C2335.84 2176.27 2226.29 2036.37 2252.98 2015.46C2279.68 1994.56 2389.21 2134.49 2415.91 2113.59C2442.61 2092.68 2333.06 1952.77 2359.76 1931.87C2386.46 1910.97 2495.99 2050.9 2522.69 2029.99C2549.38 2009.09 2439.84 1869.17 2466.53 1848.28C2493.21 1827.39 2602.77 1967.29 2629.46 1946.4C2656.14 1925.51 2546.61 1785.58 2573.3 1764.69C2599.98 1743.79 2709.54 1883.7 2736.24 1862.8C2762.94 1841.89 2653.38 1701.99 2680.08 1681.08C2706.78 1660.18 2816.33 1800.1 2843.01 1779.21C2869.7 1758.31 2760.17 1618.38 2786.87 1597.48C2813.57 1576.58 2923.11 1716.5 2949.81 1695.59C2976.51 1674.69 2866.96 1534.77 2893.65 1513.88M109.854 1477.85C136.54 1456.96 246.084 1596.88 272.784 1575.98C299.484 1555.07 189.925 1415.17 216.625 1394.26C243.324 1373.36 352.855 1513.29 379.554 1492.39C406.254 1471.48 296.695 1331.57 323.395 1310.67C350.095 1289.77 459.625 1429.7 486.325 1408.79C513.025 1387.89 403.466 1247.98 430.165 1227.08C456.865 1206.17 566.396 1346.1 593.095 1325.2C619.795 1304.3 510.236 1164.39 536.922 1143.5C563.607 1122.6 673.166 1262.51 699.909 1241.58C726.651 1220.64 617.049 1080.76 643.735 1059.87C670.42 1038.98 779.994 1178.88 806.622 1158.03C833.25 1137.18 723.763 997.216 750.534 976.257C777.305 955.297 886.764 1095.28 913.45 1074.39C940.135 1053.5 830.605 913.568 857.29 892.676C883.976 871.783 993.52 1011.7 1020.22 990.799C1046.92 969.895 937.361 829.987 964.046 809.095C990.732 788.202 1100.29 928.11 1126.99 907.207C1153.69 886.303 1044.13 746.395 1070.83 725.491C1097.53 704.588 1207.06 844.518 1233.76 823.614C1260.46 802.711 1150.9 662.803 1177.6 641.899C1204.3 620.996 1313.83 760.926 1340.53 740.022C1367.23 719.119 1257.67 579.211 1284.37 558.307C1311.07 537.403 1420.6 677.334 1447.3 656.43C1474 635.526 1364.46 495.607 1391.14 474.715C1417.83 453.823 1527.39 593.73 1554.07 572.838C1580.76 551.945 1471.23 412.015 1497.91 391.123C1524.6 370.23 1634.16 510.138 1660.86 489.235C1687.56 468.331 1578 328.423 1604.7 307.519C1631.4 286.616 1740.94 426.535 1767.63 405.642C1794.31 384.75 1684.78 244.82 1711.48 223.916C1738.18 203.013 1847.73 342.931 1874.43 322.028C1901.13 301.124 1791.58 161.205 1818.27 140.313M504.829 1982.35C531.515 1961.46 641.06 2101.38 667.759 2080.47C694.459 2059.57 584.9 1919.66 611.6 1898.76C638.3 1877.85 747.83 2017.78 774.53 1996.88C801.229 1975.98 691.671 1836.07 718.37 1815.16C745.07 1794.26 854.6 1934.19 881.3 1913.29C908 1892.38 798.441 1752.48 825.141 1731.57C851.84 1710.67 961.371 1850.6 988.071 1829.7C1014.77 1808.79 905.211 1668.88 931.897 1647.99C958.582 1627.1 1068.14 1767.01 1094.88 1746.07C1121.63 1725.13 1012.02 1585.26 1038.71 1564.37C1065.4 1543.47 1174.97 1683.37 1201.6 1662.52C1228.23 1641.67 1118.74 1501.71 1145.51 1480.75C1172.28 1459.79 1281.74 1599.78 1308.42 1578.89C1335.11 1557.99 1225.58 1418.06 1252.27 1397.17C1278.95 1376.28 1388.5 1516.2 1415.2 1495.29C1441.89 1474.39 1332.34 1334.48 1359.02 1313.59C1385.71 1292.7 1495.27 1432.6 1521.97 1411.7C1548.67 1390.8 1439.11 1250.89 1465.81 1229.99C1492.51 1209.08 1602.04 1349.01 1628.74 1328.11C1655.44 1307.21 1545.88 1167.3 1572.58 1146.39C1599.28 1125.49 1708.81 1265.42 1735.51 1244.52C1762.21 1223.61 1652.65 1083.71 1679.35 1062.8C1706.05 1041.9 1815.58 1181.83 1842.28 1160.92C1868.98 1140.02 1759.43 1000.1 1786.12 979.21C1812.8 958.317 1922.36 1098.22 1949.05 1077.33C1975.73 1056.44 1866.2 916.51 1892.89 895.617C1919.57 874.725 2029.13 1014.63 2055.83 993.729C2082.53 972.825 1972.97 832.918 1999.67 812.014C2026.37 791.11 2135.92 931.029 2162.6 910.137C2189.29 889.245 2079.76 749.314 2106.46 728.411C2133.16 707.507 2242.7 847.426 2269.4 826.522C2296.1 805.619 2186.56 665.7 2213.24 644.807M1069.94 2704.15C1096.63 2683.26 1206.17 2823.18 1232.87 2802.28C1259.57 2781.37 1150.01 2641.47 1176.71 2620.56C1203.41 2599.66 1312.94 2739.59 1339.64 2718.69C1366.34 2697.78 1256.78 2557.87 1283.48 2536.97C1310.18 2516.07 1419.71 2656 1446.41 2635.09C1473.11 2614.19 1363.55 2474.28 1390.25 2453.38C1416.95 2432.47 1526.48 2572.4 1553.18 2551.5C1579.88 2530.6 1470.32 2390.69 1497.01 2369.8C1523.69 2348.9 1633.25 2488.81 1660 2467.88C1686.74 2446.94 1577.14 2307.06 1603.82 2286.17C1630.51 2265.28 1740.08 2405.18 1766.71 2384.33C1793.34 2363.48 1683.85 2223.52 1710.62 2202.56C1737.39 2181.6 1846.85 2321.58 1873.54 2300.69C1900.22 2279.8 1790.69 2139.87 1817.38 2118.98C1844.06 2098.08 1953.61 2238 1980.31 2217.1C2007.01 2196.2 1897.45 2056.29 1924.13 2035.39C1950.82 2014.5 2060.38 2154.41 2087.08 2133.51C2113.78 2112.6 2004.22 1972.7 2030.92 1951.79C2057.62 1930.89 2167.15 2070.82 2193.85 2049.91C2220.55 2029.01 2110.99 1889.1 2137.69 1868.2C2164.39 1847.3 2273.92 1987.23 2300.62 1966.32C2327.32 1945.42 2217.76 1805.51 2244.46 1784.61C2271.16 1763.7 2380.69 1903.63 2407.39 1882.73C2434.09 1861.83 2324.54 1721.91 2351.23 1701.02C2377.91 1680.12 2487.47 1820.03 2514.16 1799.14C2540.84 1778.25 2431.31 1638.32 2458 1617.42C2484.69 1596.53 2594.24 1736.44 2620.94 1715.53C2647.64 1694.63 2538.08 1554.72 2564.78 1533.82C2591.48 1512.92 2701.03 1652.83 2727.71 1631.94C2754.4 1611.05 2644.87 1471.12 2671.57 1450.22C2698.27 1429.31 2807.81 1569.23 2834.51 1548.33C2861.21 1527.42 2751.67 1387.51 2778.35 1366.61M334.694 1765.04C361.38 1744.15 470.924 1884.07 497.624 1863.16C524.324 1842.26 414.765 1702.35 441.465 1681.45C468.165 1660.54 577.695 1800.47 604.395 1779.57C631.094 1758.67 521.535 1618.76 548.235 1597.86C574.935 1576.95 684.465 1716.88 711.165 1695.98C737.865 1675.07 628.306 1535.17 655.006 1514.26C681.705 1493.36 791.236 1633.29 817.936 1612.39C844.635 1591.48 735.076 1451.57 761.762 1430.68C788.447 1409.79 898.006 1549.7 924.749 1528.76C951.492 1507.82 841.89 1367.95 868.575 1347.06C895.261 1326.16 1004.83 1466.06 1031.46 1445.21C1058.09 1424.37 948.603 1284.4 975.374 1263.44C1002.15 1242.48 1111.6 1382.47 1138.29 1361.58C1164.98 1340.68 1055.44 1200.75 1082.13 1179.86C1108.82 1158.97 1218.36 1298.89 1245.06 1277.98C1271.76 1257.08 1162.2 1117.17 1188.89 1096.28C1215.57 1075.39 1325.13 1215.3 1351.83 1194.39C1378.53 1173.49 1268.97 1033.58 1295.67 1012.68C1322.37 991.773 1431.9 1131.7 1458.6 1110.8C1485.3 1089.9 1375.74 949.988 1402.44 929.084C1429.14 908.181 1538.67 1048.11 1565.37 1027.21C1592.07 1006.3 1482.51 866.396 1509.21 845.492C1535.91 824.588 1645.44 964.519 1672.14 943.615C1698.84 922.712 1589.3 782.792 1615.98 761.9C1642.67 741.008 1752.23 880.915 1778.91 860.023C1805.6 839.131 1696.07 699.2 1722.75 678.308C1749.44 657.415 1859 797.323 1885.7 776.42C1912.4 755.516 1802.84 615.608 1829.54 594.704C1856.24 573.801 1965.78 713.72 1992.47 692.828C2019.15 671.935 1909.62 532.005 1936.32 511.101C1963.02 490.198 2072.57 630.117 2099.27 609.213C2125.97 588.309 2016.42 448.39 2043.11 427.498M899.806 2486.84C926.492 2465.95 1036.04 2605.87 1062.74 2584.97C1089.44 2564.06 979.877 2424.15 1006.58 2403.25C1033.28 2382.35 1142.81 2522.28 1169.51 2501.37C1196.21 2480.47 1086.65 2340.56 1113.35 2319.66C1140.05 2298.75 1249.58 2438.69 1276.28 2417.78C1302.98 2396.88 1193.42 2256.97 1220.12 2236.07C1246.82 2215.16 1356.35 2355.09 1383.05 2334.19C1409.75 2313.29 1300.19 2173.38 1326.87 2152.49C1353.56 2131.59 1463.12 2271.5 1489.86 2250.56C1516.6 2229.63 1407 2089.75 1433.69 2068.86C1460.37 2047.97 1569.95 2187.86 1596.57 2167.02C1623.2 2146.17 1513.71 2006.2 1540.49 1985.24C1567.26 1964.29 1676.72 2104.27 1703.4 2083.38C1730.09 2062.49 1620.56 1922.56 1647.24 1901.66C1673.93 1880.77 1783.47 2020.69 1810.17 1999.79C1836.87 1978.88 1727.31 1838.98 1754 1818.08C1780.68 1797.19 1890.24 1937.1 1916.94 1916.19C1943.64 1895.29 1834.08 1755.38 1860.78 1734.48C1887.48 1713.58 1997.01 1853.51 2023.71 1832.6C2050.41 1811.7 1940.85 1671.79 1967.55 1650.89C1994.25 1629.98 2103.78 1769.91 2130.48 1749.01C2157.18 1728.11 2047.62 1588.2 2074.32 1567.3C2101.02 1546.39 2210.55 1686.32 2237.25 1665.42C2263.95 1644.51 2154.41 1504.6 2181.09 1483.7C2207.78 1462.81 2317.34 1602.72 2344.02 1581.83C2370.71 1560.93 2261.18 1421 2287.86 1400.11C2314.55 1379.22 2424.11 1519.13 2450.81 1498.22C2477.51 1477.32 2367.95 1337.41 2394.65 1316.51C2421.35 1295.6 2530.89 1435.52 2557.58 1414.63C2584.26 1393.74 2474.73 1253.81 2501.43 1232.9C2528.13 1212 2637.68 1351.92 2664.38 1331.02C2691.08 1310.11 2581.53 1170.19 2608.22 1149.3M729.671 2269.53C756.356 2248.64 865.901 2388.56 892.6 2367.66C919.3 2346.75 809.741 2206.84 836.441 2185.94C863.141 2165.04 972.671 2304.97 999.371 2284.06C1026.07 2263.16 916.512 2123.25 943.211 2102.35C969.911 2081.45 1079.44 2221.38 1106.14 2200.47C1132.84 2179.57 1023.28 2039.66 1049.98 2018.76C1076.68 1997.85 1186.21 2137.78 1212.91 2116.88C1239.61 2095.98 1130.05 1956.07 1156.74 1935.18C1183.42 1914.28 1292.98 2054.19 1319.73 2033.25C1346.47 2012.32 1236.87 1872.44 1263.55 1851.55C1290.24 1830.66 1399.81 1970.55 1426.44 1949.71C1453.07 1928.86 1343.58 1788.9 1370.35 1767.94C1397.12 1746.98 1506.58 1886.96 1533.27 1866.07C1559.95 1845.18 1450.42 1705.25 1477.11 1684.35C1503.79 1663.46 1613.34 1803.38 1640.04 1782.48C1666.74 1761.57 1557.18 1621.67 1583.86 1600.77C1610.55 1579.88 1720.11 1719.79 1746.81 1698.89C1773.51 1677.98 1663.95 1538.07 1690.65 1517.17C1717.35 1496.27 1826.88 1636.2 1853.58 1615.29C1880.28 1594.39 1770.72 1454.48 1797.42 1433.58C1824.12 1412.67 1933.65 1552.6 1960.35 1531.7C1987.05 1510.8 1877.49 1370.89 1904.19 1349.99C1930.89 1329.08 2040.42 1469.01 2067.12 1448.11C2093.82 1427.21 1984.27 1287.29 2010.96 1266.39C2037.64 1245.5 2147.2 1385.41 2173.89 1364.52C2200.57 1343.62 2091.04 1203.69 2117.73 1182.8C2144.41 1161.91 2253.97 1301.82 2280.67 1280.91C2307.37 1260.01 2197.81 1120.1 2224.51 1099.2C2251.21 1078.29 2360.76 1218.21 2387.44 1197.32C2414.13 1176.43 2304.6 1036.5 2331.3 1015.6C2358 994.691 2467.54 1134.61 2494.24 1113.71C2520.94 1092.8 2411.4 952.884 2438.08 931.992M1294.78 2991.34C1321.47 2970.45 1431.01 3110.36 1457.71 3089.46C1484.41 3068.56 1374.85 2928.65 1401.55 2907.75C1428.25 2886.84 1537.78 3026.77 1564.48 3005.87C1591.18 2984.97 1481.62 2845.06 1508.32 2824.15C1535.02 2803.25 1644.55 2943.18 1671.25 2922.28C1697.95 2901.37 1588.39 2761.47 1615.09 2740.56C1641.79 2719.66 1751.32 2859.59 1778.02 2838.68C1804.72 2817.78 1695.16 2677.87 1721.85 2656.98C1748.53 2636.09 1858.09 2776 1884.84 2755.06C1911.58 2734.12 1801.98 2594.25 1828.66 2573.35C1855.35 2552.46 1964.92 2692.36 1991.55 2671.51C2018.18 2650.66 1908.69 2510.7 1935.46 2489.74C1962.23 2468.78 2071.69 2608.77 2098.38 2587.87C2125.06 2566.98 2015.53 2427.05 2042.22 2406.16C2068.9 2385.27 2178.45 2525.19 2205.15 2504.28C2231.85 2483.38 2122.29 2343.47 2148.97 2322.58C2175.66 2301.69 2285.22 2441.59 2311.92 2420.69C2338.62 2399.79 2229.06 2259.88 2255.76 2238.97C2282.46 2218.07 2391.99 2358 2418.69 2337.1C2445.39 2316.19 2335.83 2176.29 2362.53 2155.38C2389.23 2134.48 2498.76 2274.41 2525.46 2253.51C2552.16 2232.6 2442.6 2092.69 2469.3 2071.79C2496 2050.89 2605.53 2190.82 2632.23 2169.91C2658.93 2149.01 2549.38 2009.09 2576.07 1988.2C2602.76 1967.31 2712.31 2107.21 2739 2086.32C2765.69 2065.43 2656.16 1925.5 2682.84 1904.61C2709.53 1883.71 2819.08 2023.62 2845.78 2002.72C2872.48 1981.81 2762.93 1841.91 2789.63 1821C2816.33 1800.1 2925.87 1940.02 2952.56 1919.13C2979.24 1898.23 2869.71 1758.3 2896.41 1737.4C2923.11 1716.5 3032.65 1856.41 3059.35 1835.51C3086.05 1814.61 2976.51 1674.69 3003.19 1653.8M55.0143 1407.81C81.6997 1386.92 191.244 1526.84 217.944 1505.93C244.644 1485.03 135.085 1345.12 161.785 1324.22C188.484 1303.31 298.015 1443.24 324.715 1422.34C351.414 1401.44 241.855 1261.53 268.555 1240.63C295.255 1219.72 404.785 1359.65 431.485 1338.75C458.185 1317.84 348.626 1177.94 375.326 1157.03C402.025 1136.13 511.556 1276.06 538.255 1255.16C564.955 1234.25 455.396 1094.34 482.082 1073.45C508.767 1052.56 618.326 1192.47 645.069 1171.53C671.812 1150.59 562.21 1010.72 588.895 989.827C615.581 968.934 725.154 1108.83 751.782 1087.98C778.41 1067.14 668.923 927.172 695.694 906.212C722.465 885.252 831.924 1025.24 858.61 1004.35C885.295 983.454 775.765 843.523 802.45 822.631C829.136 801.739 938.68 941.658 965.38 920.754C992.08 899.85 882.521 759.943 909.206 739.05C935.892 718.158 1045.45 858.065 1072.15 837.162C1098.85 816.258 989.291 676.35 1015.99 655.447C1042.69 634.543 1152.22 774.473 1178.92 753.57C1205.62 732.666 1096.06 592.758 1122.76 571.855C1149.46 550.951 1258.99 690.881 1285.69 669.978C1312.39 649.074 1202.83 509.166 1229.53 488.262C1256.23 467.359 1365.76 607.289 1392.46 586.385C1419.16 565.482 1309.62 425.563 1336.3 404.67C1362.99 383.778 1472.55 523.686 1499.23 502.793C1525.92 481.901 1416.39 341.971 1443.07 321.078C1469.76 300.186 1579.32 440.093 1606.02 419.19C1632.72 398.286 1523.16 258.378 1549.86 237.475C1576.56 216.571 1686.1 356.49 1712.79 335.598C1739.47 314.705 1629.94 174.775 1656.64 153.871C1683.34 132.968 1792.89 272.887 1819.59 251.983C1846.29 231.079 1736.74 91.1605 1763.43 70.2681M449.991 1912.3C476.676 1891.41 586.221 2031.33 612.92 2010.43C639.62 1989.52 530.061 1849.62 556.761 1828.71C583.461 1807.81 692.991 1947.74 719.691 1926.84C746.391 1905.93 636.832 1766.02 663.531 1745.12C690.231 1724.22 799.762 1864.15 826.461 1843.24C853.161 1822.34 743.602 1682.43 770.302 1661.53C797.002 1640.62 906.532 1780.55 933.232 1759.65C959.932 1738.75 850.373 1598.84 877.058 1577.95C903.744 1557.05 1013.3 1696.96 1040.05 1676.03C1066.79 1655.09 957.186 1515.21 983.871 1494.32C1010.56 1473.43 1120.13 1613.33 1146.76 1592.48C1173.39 1571.63 1063.9 1431.67 1090.67 1410.71C1117.44 1389.75 1226.9 1529.73 1253.59 1508.84C1280.27 1487.95 1170.74 1348.02 1197.43 1327.13C1224.11 1306.23 1333.66 1446.15 1360.36 1425.25C1387.06 1404.34 1277.5 1264.44 1304.18 1243.54C1330.87 1222.65 1440.43 1362.56 1467.13 1341.66C1493.83 1320.75 1384.27 1180.84 1410.97 1159.94C1437.67 1139.04 1547.2 1278.97 1573.9 1258.06C1600.6 1237.16 1491.04 1097.25 1517.74 1076.35C1544.44 1055.45 1653.97 1195.38 1680.67 1174.47C1707.37 1153.57 1597.81 1013.66 1624.51 992.757C1651.21 971.853 1760.74 1111.78 1787.44 1090.88C1814.14 1069.98 1704.59 930.057 1731.28 909.165C1757.96 888.272 1867.52 1028.18 1894.21 1007.29C1920.89 986.395 1811.36 846.465 1838.05 825.573C1864.73 804.68 1974.29 944.588 2000.99 923.684C2027.69 902.781 1918.13 762.873 1944.83 741.969C1971.53 721.066 2081.08 860.985 2107.76 840.092C2134.45 819.2 2024.92 679.27 2051.62 658.366C2078.32 637.462 2187.86 777.381 2214.56 756.478C2241.26 735.574 2131.72 595.655 2158.4 574.763M1015.1 2634.11C1041.79 2613.22 1151.33 2753.14 1178.03 2732.23C1204.73 2711.33 1095.17 2571.42 1121.87 2550.52C1148.57 2529.61 1258.1 2669.54 1284.8 2648.64C1311.5 2627.74 1201.94 2487.83 1228.64 2466.92C1255.34 2446.02 1364.87 2585.95 1391.57 2565.05C1418.27 2544.14 1308.71 2404.24 1335.41 2383.33C1362.11 2362.43 1471.64 2502.36 1498.34 2481.46C1525.04 2460.55 1415.48 2320.64 1442.17 2299.75C1468.86 2278.86 1578.41 2418.77 1605.16 2397.83C1631.9 2376.89 1522.3 2237.02 1548.98 2216.13C1575.67 2195.23 1685.24 2335.13 1711.87 2314.28C1738.5 2293.43 1629.01 2153.47 1655.78 2132.51C1682.55 2111.55 1792.01 2251.54 1818.7 2230.65C1845.38 2209.75 1735.85 2069.82 1762.54 2048.93C1789.22 2028.04 1898.77 2167.96 1925.47 2147.05C1952.17 2126.15 1842.61 1986.24 1869.29 1965.35C1895.98 1944.46 2005.54 2084.36 2032.24 2063.46C2058.94 2042.56 1949.38 1902.65 1976.08 1881.75C2002.78 1860.84 2112.31 2000.77 2139.01 1979.87C2165.71 1958.97 2056.15 1819.06 2082.85 1798.15C2109.55 1777.25 2219.08 1917.18 2245.78 1896.28C2272.48 1875.37 2162.92 1735.47 2189.62 1714.56C2216.32 1693.66 2325.85 1833.59 2352.55 1812.68C2379.25 1791.78 2269.71 1651.86 2296.39 1630.97C2323.08 1610.08 2432.64 1749.98 2459.32 1729.09C2486.01 1708.2 2376.48 1568.27 2403.16 1547.38C2429.85 1526.48 2539.41 1666.39 2566.11 1645.49C2592.8 1624.59 2483.25 1484.68 2509.95 1463.77C2536.65 1442.87 2646.19 1582.79 2672.88 1561.9C2699.56 1541 2590.03 1401.07 2616.73 1380.17C2643.43 1359.27 2752.98 1499.19 2779.67 1478.28C2806.37 1457.38 2696.83 1317.46 2723.52 1296.57M279.856 1694.99C306.541 1674.1 416.086 1814.02 442.785 1793.12C469.485 1772.21 359.926 1632.31 386.626 1611.4C413.326 1590.5 522.856 1730.43 549.556 1709.53C576.256 1688.62 466.697 1548.71 493.396 1527.81C520.096 1506.91 629.627 1646.84 656.326 1625.93C683.026 1605.03 573.467 1465.12 600.167 1444.22C626.867 1423.31 736.397 1563.24 763.097 1542.34C789.797 1521.44 680.238 1381.53 706.923 1360.64C733.608 1339.74 843.167 1479.65 869.91 1458.72C896.653 1437.78 787.051 1297.9 813.736 1277.01C840.422 1256.12 949.995 1396.02 976.623 1375.17C1003.25 1354.32 893.764 1214.36 920.535 1193.4C947.307 1172.44 1056.77 1312.42 1083.45 1291.53C1110.14 1270.64 1000.61 1130.71 1027.29 1109.82C1053.98 1088.92 1163.52 1228.84 1190.22 1207.94C1216.92 1187.04 1107.36 1047.13 1134.05 1026.24C1160.73 1005.34 1270.29 1145.25 1296.99 1124.35C1323.69 1103.44 1214.13 963.535 1240.83 942.632C1267.53 921.728 1377.06 1061.66 1403.76 1040.75C1430.46 1019.85 1320.9 879.943 1347.6 859.04C1374.3 838.136 1483.83 978.066 1510.53 957.163C1537.23 936.259 1427.67 796.351 1454.37 775.447C1481.07 754.544 1590.6 894.474 1617.3 873.57C1644 852.667 1534.46 712.748 1561.14 691.855C1587.83 670.963 1697.39 810.871 1724.07 789.978C1750.76 769.086 1641.23 629.156 1667.91 608.263C1694.6 587.371 1804.16 727.278 1830.86 706.375C1857.56 685.471 1748 545.563 1774.7 524.66C1801.4 503.756 1910.94 643.675 1937.63 622.783C1964.31 601.89 1854.78 461.96 1881.48 441.056C1908.18 420.153 2017.73 560.072 2044.43 539.168C2071.13 518.264 1961.58 378.345 1988.27 357.453M844.967 2416.8C871.652 2395.91 981.197 2535.82 1007.9 2514.92C1034.6 2494.02 925.038 2354.11 951.737 2333.21C978.437 2312.3 1087.97 2452.23 1114.67 2431.33C1141.37 2410.43 1031.81 2270.52 1058.51 2249.61C1085.21 2228.71 1194.74 2368.64 1221.44 2347.74C1248.14 2326.83 1138.58 2186.93 1165.28 2166.02C1191.98 2145.12 1301.51 2285.05 1328.21 2264.14C1354.91 2243.24 1245.35 2103.33 1272.03 2082.44C1298.72 2061.55 1408.28 2201.46 1435.02 2180.52C1461.76 2159.58 1352.16 2019.71 1378.85 1998.81C1405.53 1977.92 1515.11 2117.82 1541.73 2096.97C1568.36 2076.12 1458.88 1936.16 1485.65 1915.2C1512.42 1894.24 1621.88 2034.23 1648.56 2013.33C1675.25 1992.44 1565.72 1852.51 1592.4 1831.62C1619.09 1810.73 1728.63 1950.65 1755.33 1929.74C1782.03 1908.84 1672.47 1768.93 1699.16 1748.04C1725.84 1727.15 1835.4 1867.05 1862.1 1846.15C1888.8 1825.25 1779.24 1685.34 1805.94 1664.44C1832.64 1643.53 1942.17 1783.46 1968.87 1762.56C1995.57 1741.65 1886.01 1601.75 1912.71 1580.84C1939.41 1559.94 2048.94 1699.87 2075.64 1678.97C2102.34 1658.06 1992.78 1518.15 2019.48 1497.25C2046.18 1476.35 2155.71 1616.28 2182.41 1595.37C2209.11 1574.47 2099.57 1434.55 2126.26 1413.66C2152.94 1392.77 2262.5 1532.67 2289.19 1511.78C2315.87 1490.89 2206.34 1350.96 2233.03 1330.07C2259.71 1309.17 2369.27 1449.08 2395.97 1428.18C2422.67 1407.27 2313.11 1267.37 2339.81 1246.46C2366.51 1225.56 2476.05 1365.48 2502.74 1344.59C2529.43 1323.69 2419.9 1183.76 2446.59 1162.86C2473.29 1141.96 2582.84 1281.88 2609.54 1260.97C2636.24 1240.07 2526.69 1100.15 2553.38 1079.26M674.831 2199.49C701.516 2178.6 811.061 2318.51 837.761 2297.61C864.46 2276.71 754.901 2136.8 781.601 2115.9C808.301 2094.99 917.831 2234.92 944.531 2214.02C971.231 2193.12 861.672 2053.21 888.372 2032.3C915.071 2011.4 1024.6 2151.33 1051.3 2130.43C1078 2109.52 968.442 1969.62 995.142 1948.71C1021.84 1927.81 1131.37 2067.74 1158.07 2046.83C1184.77 2025.93 1075.21 1886.02 1101.9 1865.13C1128.58 1844.24 1238.14 1984.15 1264.89 1963.21C1291.63 1942.27 1182.03 1802.4 1208.71 1781.5C1235.4 1760.61 1344.97 1900.51 1371.6 1879.66C1398.23 1858.81 1288.74 1718.85 1315.51 1697.89C1342.28 1676.93 1451.74 1816.92 1478.43 1796.02C1505.11 1775.13 1395.58 1635.2 1422.27 1614.31C1448.95 1593.42 1558.5 1733.34 1585.2 1712.43C1611.9 1691.53 1502.34 1551.62 1529.02 1530.73C1555.71 1509.84 1665.27 1649.74 1691.97 1628.84C1718.67 1607.94 1609.11 1468.03 1635.81 1447.13C1662.51 1426.22 1772.04 1566.15 1798.74 1545.25C1825.44 1524.34 1715.88 1384.44 1742.58 1363.53C1769.28 1342.63 1878.81 1482.56 1905.51 1461.66C1932.21 1440.75 1822.65 1300.84 1849.35 1279.94C1876.05 1259.04 1985.58 1398.97 2012.28 1378.06C2038.98 1357.16 1929.43 1217.24 1956.12 1196.35C1982.8 1175.46 2092.36 1315.36 2119.05 1294.47C2145.73 1273.58 2036.2 1133.65 2062.89 1112.76C2089.57 1091.86 2199.13 1231.77 2225.83 1210.87C2252.53 1189.96 2142.97 1050.06 2169.67 1029.15C2196.37 1008.25 2305.92 1148.17 2332.6 1127.28C2359.29 1106.38 2249.76 966.453 2276.46 945.55C2303.16 924.646 2412.7 1064.57 2439.4 1043.66C2466.1 1022.76 2356.56 882.839 2383.24 861.946M1239.94 2921.29C1266.63 2900.4 1376.17 3040.32 1402.87 3019.42C1429.57 2998.51 1320.01 2858.6 1346.71 2837.7C1373.41 2816.8 1482.94 2956.73 1509.64 2935.82C1536.34 2914.92 1426.78 2775.01 1453.48 2754.11C1480.18 2733.21 1589.71 2873.14 1616.41 2852.23C1643.11 2831.33 1533.55 2691.42 1560.25 2670.52C1586.95 2649.61 1696.48 2789.54 1723.18 2768.64C1749.88 2747.74 1640.33 2607.83 1667.01 2586.94C1693.7 2566.04 1803.26 2705.95 1830 2685.01C1856.74 2664.08 1747.14 2524.2 1773.82 2503.31C1800.51 2482.42 1910.08 2622.31 1936.71 2601.47C1963.34 2580.62 1853.85 2440.65 1880.62 2419.7C1907.39 2398.74 2016.85 2538.72 2043.54 2517.83C2070.22 2496.94 1960.69 2357.01 1987.38 2336.11C2014.06 2315.22 2123.61 2455.14 2150.31 2434.24C2177.01 2413.33 2067.45 2273.43 2094.14 2252.53C2120.82 2231.64 2230.38 2371.55 2257.08 2350.65C2283.78 2329.74 2174.22 2189.83 2200.92 2168.93C2227.62 2148.03 2337.15 2287.96 2363.85 2267.05C2390.55 2246.15 2280.99 2106.24 2307.69 2085.34C2334.39 2064.43 2443.92 2204.36 2470.62 2183.46C2497.32 2162.56 2387.76 2022.65 2414.46 2001.75C2441.16 1980.84 2550.69 2120.77 2577.39 2099.87C2604.09 2078.97 2494.55 1939.05 2521.23 1918.15C2547.92 1897.26 2657.48 2037.17 2684.16 2016.28C2710.85 1995.38 2601.32 1855.45 2628 1834.56C2654.69 1813.67 2764.25 1953.58 2790.95 1932.67C2817.65 1911.77 2708.09 1771.86 2734.79 1750.96C2761.49 1730.05 2871.03 1869.97 2897.72 1849.08C2924.4 1828.19 2814.87 1688.26 2841.57 1667.35C2868.27 1646.45 2977.82 1786.37 3004.52 1765.47C3031.22 1744.56 2921.67 1604.64 2948.36 1583.75M164.56 1547.73C191.245 1526.84 300.79 1666.76 327.49 1645.85C354.189 1624.95 244.63 1485.04 271.33 1464.14C298.03 1443.23 407.56 1583.16 434.26 1562.26C460.96 1541.36 351.401 1401.45 378.101 1380.54C404.8 1359.64 514.331 1499.57 541.031 1478.67C567.73 1457.76 458.171 1317.86 484.871 1296.95C511.571 1276.05 621.101 1415.98 647.801 1395.08C674.501 1374.17 564.942 1234.26 591.627 1213.37C618.313 1192.48 727.872 1332.39 754.614 1311.45C781.357 1290.51 671.755 1150.64 698.441 1129.75C725.126 1108.85 834.699 1248.75 861.328 1227.9C887.956 1207.05 778.468 1067.09 805.24 1046.13C832.011 1025.17 941.47 1165.16 968.155 1144.27C994.841 1123.37 885.31 983.443 911.996 962.55C938.681 941.658 1048.23 1081.58 1074.93 1060.67C1101.63 1039.77 992.066 899.862 1018.75 878.969C1045.44 858.077 1155 997.985 1181.7 977.081C1208.4 956.177 1098.84 816.269 1125.54 795.366C1152.24 774.462 1261.77 914.392 1288.47 893.489C1315.17 872.585 1205.61 732.677 1232.31 711.774C1259.01 690.87 1368.54 830.8 1395.24 809.897C1421.94 788.993 1312.38 649.085 1339.08 628.181C1365.78 607.278 1475.31 747.208 1502.01 726.305C1528.71 705.401 1419.16 565.482 1445.85 544.589C1472.53 523.697 1582.09 663.605 1608.78 642.712C1635.46 621.82 1525.93 481.89 1552.62 460.997C1579.3 440.105 1688.86 580.013 1715.56 559.109C1742.26 538.205 1632.7 398.297 1659.4 377.394C1686.1 356.49 1795.65 496.409 1822.33 475.517C1849.02 454.624 1739.49 314.694 1766.19 293.791C1792.89 272.887 1902.43 412.806 1929.13 391.902C1955.83 370.999 1846.29 231.08 1872.97 210.187M559.536 2052.22C586.221 2031.33 695.766 2171.25 722.465 2150.35C749.165 2129.44 639.606 1989.53 666.306 1968.63C693.006 1947.73 802.536 2087.66 829.236 2066.75C855.936 2045.85 746.377 1905.94 773.076 1885.04C799.776 1864.14 909.307 2004.07 936.006 1983.16C962.706 1962.26 853.147 1822.35 879.847 1801.45C906.547 1780.54 1016.08 1920.47 1042.78 1899.57C1069.48 1878.67 959.918 1738.76 986.603 1717.87C1013.29 1696.97 1122.85 1836.88 1149.59 1815.94C1176.33 1795.01 1066.73 1655.13 1093.42 1634.24C1120.1 1613.35 1229.68 1753.24 1256.3 1732.4C1282.93 1711.55 1173.44 1571.59 1200.22 1550.63C1226.99 1529.67 1336.45 1669.65 1363.13 1648.76C1389.82 1627.87 1280.29 1487.94 1306.97 1467.04C1333.66 1446.15 1443.2 1586.07 1469.9 1565.17C1496.6 1544.26 1387.04 1404.36 1413.73 1383.46C1440.41 1362.57 1549.97 1502.48 1576.67 1481.58C1603.37 1460.67 1493.81 1320.76 1520.51 1299.86C1547.21 1278.96 1656.74 1418.89 1683.44 1397.98C1710.14 1377.08 1600.58 1237.17 1627.28 1216.27C1653.98 1195.36 1763.51 1335.29 1790.21 1314.39C1816.91 1293.49 1707.35 1153.58 1734.05 1132.68C1760.75 1111.77 1870.28 1251.7 1896.98 1230.8C1923.68 1209.9 1814.14 1069.98 1840.82 1049.08C1867.51 1028.19 1977.07 1168.1 2003.75 1147.21C2030.44 1126.31 1920.91 986.384 1947.59 965.492C1974.28 944.599 2083.84 1084.51 2110.54 1063.6C2137.24 1042.7 2027.68 902.792 2054.38 881.888C2081.08 860.985 2190.62 1000.9 2217.31 980.011C2243.99 959.119 2134.46 819.189 2161.16 798.285C2187.86 777.381 2297.41 917.3 2324.11 896.397C2350.81 875.493 2241.26 735.574 2267.95 714.682M1124.65 2774.03C1151.33 2753.13 1260.88 2893.05 1287.58 2872.15C1314.28 2851.25 1204.72 2711.34 1231.42 2690.43C1258.12 2669.53 1367.65 2809.46 1394.35 2788.56C1421.05 2767.65 1311.49 2627.75 1338.19 2606.84C1364.89 2585.94 1474.42 2725.87 1501.12 2704.97C1527.82 2684.06 1418.26 2544.15 1444.96 2523.25C1471.66 2502.35 1581.19 2642.28 1607.89 2621.37C1634.59 2600.47 1525.03 2460.56 1551.71 2439.67C1578.4 2418.78 1687.96 2558.69 1714.7 2537.75C1741.44 2516.81 1631.84 2376.94 1658.53 2356.04C1685.21 2335.15 1794.79 2475.05 1821.41 2454.2C1848.04 2433.35 1738.56 2293.39 1765.33 2272.43C1792.1 2251.47 1901.56 2391.46 1928.24 2370.56C1954.93 2349.67 1845.4 2209.74 1872.08 2188.85C1898.77 2167.96 2008.31 2307.88 2035.01 2286.97C2061.71 2266.07 1952.15 2126.16 1978.84 2105.27C2005.52 2084.38 2115.08 2224.28 2141.78 2203.38C2168.48 2182.48 2058.92 2042.57 2085.62 2021.66C2112.32 2000.76 2221.85 2140.69 2248.55 2119.79C2275.25 2098.88 2165.69 1958.98 2192.39 1938.07C2219.09 1917.17 2328.62 2057.1 2355.32 2036.19C2382.02 2015.29 2272.47 1875.38 2299.16 1854.48C2325.86 1833.58 2435.39 1973.51 2462.09 1952.6C2488.79 1931.7 2379.25 1791.78 2405.94 1770.89C2432.62 1750 2542.18 1889.9 2568.86 1869.01C2595.55 1848.12 2486.02 1708.19 2512.71 1687.3C2539.39 1666.4 2648.95 1806.31 2675.65 1785.41C2702.35 1764.5 2592.79 1624.6 2619.49 1603.69C2646.19 1582.79 2755.73 1722.71 2782.42 1701.82C2809.11 1680.92 2699.58 1540.99 2726.27 1520.09C2752.97 1499.19 2862.52 1639.1 2889.22 1618.2C2915.92 1597.3 2806.37 1457.38 2833.06 1436.49M389.4 1834.91C416.085 1814.02 525.63 1953.94 552.33 1933.04C579.03 1912.13 469.471 1772.22 496.17 1751.32C522.87 1730.42 632.401 1870.35 659.1 1849.44C685.8 1828.54 576.241 1688.63 602.941 1667.73C629.641 1646.83 739.171 1786.76 765.871 1765.85C792.571 1744.95 683.012 1605.04 709.711 1584.14C736.411 1563.23 845.941 1703.16 872.641 1682.26C899.341 1661.36 789.782 1521.45 816.468 1500.56C843.153 1479.66 952.712 1619.57 979.455 1598.63C1006.2 1577.7 896.595 1437.82 923.281 1416.93C949.966 1396.04 1059.54 1535.93 1086.17 1515.09C1112.8 1494.24 1003.31 1354.28 1030.08 1333.32C1056.85 1312.36 1166.31 1452.34 1193 1431.45C1219.68 1410.56 1110.15 1270.63 1136.84 1249.73C1163.52 1228.84 1273.07 1368.76 1299.77 1347.86C1326.47 1326.95 1216.91 1187.05 1243.59 1166.15C1270.28 1145.26 1379.84 1285.17 1406.54 1264.27C1433.24 1243.36 1323.68 1103.45 1350.38 1082.55C1377.08 1061.65 1486.61 1201.58 1513.31 1180.67C1540.01 1159.77 1430.45 1019.86 1457.15 998.958C1483.85 978.054 1593.38 1117.98 1620.08 1097.08C1646.78 1076.18 1537.22 936.269 1563.92 915.366C1590.62 894.462 1700.15 1034.39 1726.85 1013.49C1753.55 992.585 1644 852.666 1670.69 831.774C1697.37 810.881 1806.93 950.789 1833.62 929.897C1860.3 909.004 1750.77 769.074 1777.46 748.182C1804.14 727.289 1913.7 867.197 1940.4 846.293C1967.1 825.39 1857.54 685.482 1884.24 664.578C1910.94 643.675 2020.49 783.594 2047.17 762.701C2073.86 741.809 1964.33 601.879 1991.03 580.975C2017.73 560.071 2127.27 699.99 2153.97 679.087C2180.67 658.183 2071.13 518.264 2097.81 497.372M954.511 2556.72C981.197 2535.83 1090.74 2675.75 1117.44 2654.84C1144.14 2633.94 1034.58 2494.03 1061.28 2473.13C1087.98 2452.22 1197.51 2592.15 1224.21 2571.25C1250.91 2550.35 1141.35 2410.44 1168.05 2389.53C1194.75 2368.63 1304.28 2508.56 1330.98 2487.66C1357.68 2466.75 1248.12 2326.85 1274.82 2305.94C1301.52 2285.04 1411.05 2424.97 1437.75 2404.07C1464.45 2383.16 1354.89 2243.25 1381.58 2222.36C1408.26 2201.47 1517.82 2341.38 1544.57 2320.44C1571.31 2299.5 1461.71 2159.63 1488.39 2138.74C1515.08 2117.84 1624.65 2257.74 1651.28 2236.89C1677.91 2216.04 1568.42 2076.08 1595.19 2055.12C1621.96 2034.16 1731.42 2174.15 1758.11 2153.26C1784.79 2132.36 1675.26 1992.43 1701.95 1971.54C1728.63 1950.65 1838.18 2090.57 1864.88 2069.66C1891.58 2048.76 1782.02 1908.85 1808.7 1887.96C1835.39 1867.07 1944.95 2006.97 1971.65 1986.07C1998.35 1965.17 1888.79 1825.26 1915.49 1804.36C1942.19 1783.45 2051.72 1923.38 2078.42 1902.48C2105.12 1881.58 1995.56 1741.67 2022.26 1720.76C2048.96 1699.86 2158.49 1839.79 2185.19 1818.89C2211.89 1797.98 2102.33 1658.08 2129.03 1637.17C2155.73 1616.27 2265.26 1756.2 2291.96 1735.29C2318.66 1714.39 2209.11 1574.47 2235.8 1553.58C2262.49 1532.69 2372.04 1672.59 2398.73 1651.7C2425.41 1630.81 2315.88 1490.88 2342.57 1469.99C2369.26 1449.09 2478.81 1589 2505.51 1568.1C2532.21 1547.2 2422.65 1407.29 2449.35 1386.38C2476.05 1365.48 2585.6 1505.4 2612.28 1484.51C2638.97 1463.61 2529.44 1323.68 2556.14 1302.78C2582.84 1281.88 2692.38 1421.8 2719.08 1400.89C2745.78 1379.99 2636.24 1240.07 2662.92 1219.18M784.376 2339.41C811.062 2318.51 920.606 2458.43 947.306 2437.53C974.006 2416.63 864.447 2276.72 891.147 2255.81C917.846 2234.91 1027.38 2374.84 1054.08 2353.94C1080.78 2333.03 971.217 2193.13 997.917 2172.22C1024.62 2151.32 1134.15 2291.25 1160.85 2270.35C1187.55 2249.44 1077.99 2109.53 1104.69 2088.63C1131.39 2067.73 1240.92 2207.66 1267.62 2186.75C1294.32 2165.85 1184.76 2025.94 1211.44 2005.05C1238.13 1984.16 1347.69 2124.07 1374.43 2103.13C1401.17 2082.19 1291.57 1942.32 1318.26 1921.42C1344.94 1900.53 1454.52 2040.43 1481.14 2019.58C1507.77 1998.73 1398.28 1858.77 1425.06 1837.81C1451.83 1816.85 1561.29 1956.84 1587.97 1935.94C1614.66 1915.05 1505.13 1775.12 1531.81 1754.23C1558.5 1733.34 1668.04 1873.26 1694.74 1852.35C1721.44 1831.45 1611.88 1691.54 1638.57 1670.65C1665.25 1649.76 1774.81 1789.66 1801.51 1768.76C1828.21 1747.86 1718.65 1607.95 1745.35 1587.04C1772.05 1566.14 1881.58 1706.07 1908.28 1685.17C1934.98 1664.26 1825.42 1524.36 1852.12 1503.45C1878.82 1482.55 1988.35 1622.48 2015.05 1601.57C2041.75 1580.67 1932.19 1440.76 1958.89 1419.86C1985.59 1398.96 2095.12 1538.89 2121.82 1517.98C2148.52 1497.08 2038.98 1357.16 2065.66 1336.27C2092.35 1315.38 2201.91 1455.28 2228.59 1434.39C2255.28 1413.5 2145.75 1273.57 2172.43 1252.68C2199.12 1231.78 2308.68 1371.69 2335.38 1350.79C2362.08 1329.88 2252.52 1189.98 2279.22 1169.07C2305.92 1148.17 2415.46 1288.09 2442.15 1267.2C2468.84 1246.3 2359.3 1106.37 2386 1085.47C2412.7 1064.57 2522.25 1204.48 2548.95 1183.58C2575.65 1162.68 2466.1 1022.76 2492.79 1001.87M1349.49 3061.21C1376.17 3040.32 1485.72 3180.24 1512.42 3159.34C1539.12 3138.43 1429.56 2998.53 1456.26 2977.62C1482.96 2956.72 1592.49 3096.65 1619.19 3075.74C1645.89 3054.84 1536.33 2914.93 1563.03 2894.03C1589.73 2873.13 1699.26 3013.06 1725.96 2992.15C1752.66 2971.25 1643.1 2831.34 1669.8 2810.44C1696.5 2789.53 1806.03 2929.46 1832.73 2908.56C1859.43 2887.66 1749.87 2747.75 1776.56 2726.86C1803.24 2705.96 1912.8 2845.87 1939.54 2824.93C1966.29 2804 1856.68 2664.12 1883.37 2643.23C1910.05 2622.34 2019.63 2762.23 2046.26 2741.39C2072.88 2720.54 1963.4 2580.58 1990.17 2559.62C2016.94 2538.66 2126.4 2678.64 2153.08 2657.75C2179.77 2636.86 2070.24 2496.93 2096.92 2476.04C2123.61 2455.14 2233.15 2595.06 2259.85 2574.16C2286.55 2553.25 2176.99 2413.35 2203.68 2392.45C2230.37 2371.56 2339.92 2511.47 2366.62 2490.57C2393.32 2469.66 2283.77 2329.75 2310.46 2308.85C2337.16 2287.95 2446.7 2427.88 2473.39 2406.97C2500.09 2386.07 2390.54 2246.16 2417.24 2225.26C2443.94 2204.36 2553.47 2344.29 2580.17 2323.38C2606.87 2302.48 2497.31 2162.57 2524.01 2141.67C2550.71 2120.76 2660.24 2260.69 2686.94 2239.79C2713.64 2218.89 2604.09 2078.97 2630.78 2058.07C2657.46 2037.18 2767.02 2177.09 2793.71 2156.2C2820.39 2135.3 2710.86 1995.37 2737.55 1974.48C2764.23 1953.59 2873.79 2093.5 2900.49 2072.59C2927.19 2051.69 2817.63 1911.78 2844.33 1890.88C2871.03 1869.98 2980.58 2009.89 3007.26 1989C3033.95 1968.11 2924.42 1828.18 2951.12 1807.28C2977.82 1786.37 3087.36 1926.29 3114.06 1905.39C3140.76 1884.48 3031.22 1744.56 3057.9 1723.67" stroke="url(#paint0_linear_3358_2858)" stroke-miterlimit="10"/>
<defs>
<linearGradient id="paint0_linear_3358_2858" x1="2209.69" y1="2929.29" x2="1389.19" y2="933.294" gradientUnits="userSpaceOnUse">
<stop stop-color="#EBE9FE"/>
<stop offset="1" stop-color="#EBE9FE" stop-opacity="0"/>
</linearGradient>
</defs>
</svg>
