<svg width="24" height="24" viewBox="0 0 24 24" fill="none" xmlns="http://www.w3.org/2000/svg">
<path d="M12 12H11.25C11.25 12.3228 11.4566 12.6094 11.7628 12.7115L12 12ZM12.75 7C12.75 6.58579 12.4142 6.25 12 6.25C11.5858 6.25 11.25 6.58579 11.25 7H12H12.75ZM14.7628 13.7115C15.1558 13.8425 15.5805 13.6301 15.7115 13.2372C15.8425 12.8442 15.6301 12.4195 15.2372 12.2885L15 13L14.7628 13.7115ZM12 12H12.75V7H12H11.25V12H12ZM12 12L11.7628 12.7115L14.7628 13.7115L15 13L15.2372 12.2885L12.2372 11.2885L12 12ZM22 12H21.25C21.25 17.1086 17.1086 21.25 12 21.25V22V22.75C17.9371 22.75 22.75 17.9371 22.75 12H22ZM12 22V21.25C6.89137 21.25 2.75 17.1086 2.75 12H2H1.25C1.25 17.9371 6.06294 22.75 12 22.75V22ZM2 12H2.75C2.75 6.89137 6.89137 2.75 12 2.75V2V1.25C6.06294 1.25 1.25 6.06294 1.25 12H2ZM12 2V2.75C17.1086 2.75 21.25 6.89137 21.25 12H22H22.75C22.75 6.06294 17.9371 1.25 12 1.25V2Z" fill="#07050F"/>
</svg>
