<svg width="32" height="32" viewBox="0 0 32 32" fill="none" xmlns="http://www.w3.org/2000/svg">
<circle cx="26" cy="11" r="6" fill="#BDB6FC"/>
<path d="M22.4038 13.8766C22.7038 14.3403 23.323 14.4729 23.7866 14.1729C24.2503 13.8728 24.3829 13.2537 24.0829 12.79L22.4038 13.8766ZM7.9172 12.79C7.61716 13.2537 7.7498 13.8728 8.21347 14.1729C8.67714 14.4729 9.29626 14.3403 9.5963 13.8766L7.9172 12.79ZM20.8576 16.5145C21.1417 16.0409 20.9882 15.4266 20.5146 15.1425C20.041 14.8583 19.4267 15.0119 19.1426 15.4855L20.8576 16.5145ZM8.00008 27.6666H24.0001V25.6666H8.00008V27.6666ZM30.3334 21.3333V18.6666H28.3334V21.3333H30.3334ZM1.66675 18.6666V21.3333H3.66675V18.6666H1.66675ZM16.0001 4.33331C8.084 4.33331 1.66675 10.7506 1.66675 18.6666H3.66675C3.66675 11.8551 9.18857 6.33331 16.0001 6.33331V4.33331ZM30.3334 18.6666C30.3334 10.7506 23.9162 4.33331 16.0001 4.33331V6.33331C22.8116 6.33331 28.3334 11.8551 28.3334 18.6666H30.3334ZM24.0001 27.6666C27.4979 27.6666 30.3334 24.8311 30.3334 21.3333H28.3334C28.3334 23.7265 26.3933 25.6666 24.0001 25.6666V27.6666ZM8.00008 25.6666C5.60685 25.6666 3.66675 23.7265 3.66675 21.3333H1.66675C1.66675 24.8311 4.50228 27.6666 8.00008 27.6666V25.6666ZM13.0001 26.6666C13.0001 25.0098 14.3432 23.6666 16.0001 23.6666V21.6666C13.2387 21.6666 11.0001 23.9052 11.0001 26.6666H13.0001ZM16.0001 23.6666C17.6569 23.6666 19.0001 25.0098 19.0001 26.6666H21.0001C21.0001 23.9052 18.7615 21.6666 16.0001 21.6666V23.6666ZM16 10.3333C19.2535 10.3333 21.1437 11.9294 22.4038 13.8766L24.0829 12.79C22.5536 10.4268 20.0964 8.33331 16 8.33331V10.3333ZM9.5963 13.8766C10.8563 11.9294 12.7466 10.3333 16 10.3333V8.33331C11.9037 8.33331 9.44648 10.4268 7.9172 12.79L9.5963 13.8766ZM16.8576 23.1811L20.8576 16.5145L19.1426 15.4855L15.1426 22.1522L16.8576 23.1811Z" fill="#07050F"/>
</svg>
