<svg width="32" height="32" viewBox="0 0 32 32" fill="none" xmlns="http://www.w3.org/2000/svg">
<circle cx="6" cy="26" r="6" fill="#BDB6FC"/>
<path d="M28 24L17.083 28.852C16.3935 29.1585 15.6065 29.1585 14.917 28.852L4 24M28 17.3334L17.083 22.1853C16.3935 22.4918 15.6065 22.4918 14.917 22.1853L4 17.3334M5.05181 10.5259L14.8074 15.4037C15.5582 15.7791 16.4418 15.7791 17.1926 15.4037L26.9482 10.5259C27.9309 10.0346 27.9309 8.63215 26.9482 8.14078L17.1926 3.26297C16.4418 2.8876 15.5582 2.8876 14.8074 3.26297L5.05181 8.14078C4.06908 8.63215 4.06907 10.0346 5.05181 10.5259Z" stroke="#07050F" stroke-width="2" stroke-linecap="round" stroke-linejoin="round"/>
</svg>
