<svg width="32" height="32" viewBox="0 0 32 32" fill="none" xmlns="http://www.w3.org/2000/svg">
<circle cx="26" cy="26" r="6" fill="#BDB6FC"/>
<path d="M28 13.3334V10C28 7.0545 25.6122 4.66669 22.6667 4.66669H9.33333C6.38781 4.66669 4 7.0545 4 10V24C4 26.9455 6.38781 29.3334 9.33333 29.3334H12M10.6667 2.66669V6.66669M21.3333 12H10.6667M18.6667 17.3334H10.6667M13.3333 22.6667H10.6667M21.3333 2.66669V6.66669M16 29.3334L20.081 28.1699C20.2998 28.1076 20.4991 27.9904 20.6599 27.8295L27.3464 21.1431C28.2179 20.2716 28.2179 18.8585 27.3464 17.987C26.4748 17.1155 25.0618 17.1155 24.1903 17.987L17.5038 24.6734C17.343 24.8343 17.2258 25.0335 17.1634 25.2523L16 29.3334Z" stroke="#07050F" stroke-width="2" stroke-linecap="round"/>
</svg>
