<svg width="32" height="32" viewBox="0 0 32 32" fill="none" xmlns="http://www.w3.org/2000/svg">
<circle cx="26" cy="11" r="6" fill="#BDB6FC"/>
<path d="M25.469 13.4487C27.0659 14.8136 27.0659 17.1865 25.469 18.5514C23.2677 20.4329 19.8445 22.6667 16 22.6667C12.1556 22.6667 8.73243 20.4329 6.53103 18.5514C4.93415 17.1865 4.93415 14.8136 6.53103 13.4487C8.73243 11.5672 12.1556 9.33337 16 9.33337C19.8445 9.33337 23.2677 11.5672 25.469 13.4487Z" stroke="#07050F" stroke-width="2"/>
<circle cx="16" cy="16" r="2.66667" stroke="#07050F" stroke-width="2"/>
<path d="M16 2.66663V5.33329" stroke="#07050F" stroke-width="2" stroke-linecap="round"/>
<path d="M16 26.6666V29.3333" stroke="#07050F" stroke-width="2" stroke-linecap="round"/>
<path d="M28 6.66663L26 8.66663M4 6.66663L6 8.66663" stroke="#07050F" stroke-width="2" stroke-linecap="round"/>
<path d="M28 25.3334L26 23.3334M4 25.3334L6 23.3334" stroke="#07050F" stroke-width="2" stroke-linecap="round"/>
</svg>
