<svg width="32" height="32" viewBox="0 0 32 32" fill="none" xmlns="http://www.w3.org/2000/svg">
<circle cx="26" cy="26" r="6" fill="#BDB6FC"/>
<path d="M2.66669 10.6666H5.33335L13.683 14.3196C14.9655 14.8807 15.5552 16.3712 15.0038 17.6579C14.4494 18.9514 12.9514 19.5506 11.6579 18.9962L9.33335 18" stroke="#07050F" stroke-width="2" stroke-linecap="round" stroke-linejoin="round"/>
<path d="M3.1139 21.7722C2.61992 21.5252 2.01925 21.7254 1.77226 22.2194C1.52527 22.7134 1.72549 23.3141 2.21947 23.5611L3.1139 21.7722ZM15.1139 17.7722L14.2195 17.325L13.325 19.1138L14.2195 19.5611L15.1139 17.7722ZM21.8886 22.3333H24V20.3333H21.8886V22.3333ZM24 25.6666H13.1847V27.6666H24V25.6666ZM8.86168 24.6461L3.1139 21.7722L2.21947 23.5611L7.96725 26.4349L8.86168 24.6461ZM18.7581 19.5943L15.1139 17.7722L14.2195 19.5611L17.8636 21.3831L18.7581 19.5943ZM13.1847 25.6666C11.684 25.6666 10.2039 25.3172 8.86168 24.6461L7.96725 26.4349C9.58723 27.2449 11.3736 27.6666 13.1847 27.6666V25.6666ZM25.6667 24C25.6667 24.9204 24.9205 25.6666 24 25.6666V27.6666C26.0251 27.6666 27.6667 26.025 27.6667 24H25.6667ZM24 22.3333C24.9205 22.3333 25.6667 23.0795 25.6667 24H27.6667C27.6667 21.9749 26.0251 20.3333 24 20.3333V22.3333ZM21.8886 20.3333C20.8018 20.3333 19.7301 20.0803 18.7581 19.5943L17.8636 21.3831C19.1133 22.008 20.4914 22.3333 21.8886 22.3333V20.3333Z" fill="#07050F"/>
<path d="M16.8111 11.3473L20.5843 16.0638C21.6519 17.3982 23.6814 17.3982 24.749 16.0638L28.5222 11.3473C29.0473 10.6909 29.3333 9.87546 29.3333 9.03494V8.86891C29.3333 6.91629 27.7504 5.33337 25.7978 5.33337H25.4013C24.7175 5.33337 24.0617 5.605 23.5782 6.08851C23.0748 6.59193 22.2586 6.59193 21.7551 6.08851C21.2716 5.605 20.6159 5.33337 19.9321 5.33337H19.5355C17.5829 5.33337 16 6.91629 16 8.86891V9.03494C16 9.87546 16.2861 10.6909 16.8111 11.3473Z" stroke="#07050F" stroke-width="2" stroke-linejoin="round"/>
</svg>
