<svg width="32" height="32" viewBox="0 0 32 32" fill="none" xmlns="http://www.w3.org/2000/svg">
<circle cx="6" cy="26" r="6" fill="#BDB6FC"/>
<circle cx="16" cy="16" r="2.66667" fill="#07050F"/>
<path d="M16 16L29.3333 2.66663M24 16C24 20.4182 20.4182 24 16 24C11.5817 24 7.99996 20.4182 7.99996 16C7.99996 11.5817 11.5817 7.99996 16 7.99996C20.4182 7.99996 24 11.5817 24 16ZM29.3333 16C29.3333 23.3638 23.3638 29.3333 16 29.3333C8.63616 29.3333 2.66663 23.3638 2.66663 16C2.66663 8.63616 8.63616 2.66663 16 2.66663C23.3638 2.66663 29.3333 8.63616 29.3333 16Z" stroke="#07050F" stroke-width="2" stroke-linecap="round"/>
</svg>
