<svg width="38" height="39" viewBox="0 0 38 39" fill="none" xmlns="http://www.w3.org/2000/svg">
<path fill-rule="evenodd" clip-rule="evenodd" d="M19.8649 35.28C14.9738 34.0771 10.2637 34.1559 5.30264 34.0117C4.33377 33.9837 3.52828 34.7448 3.49909 35.7108C3.46991 36.6773 4.23453 37.4839 5.2034 37.5125C9.90767 37.6491 14.3843 37.5388 19.0302 38.6804C19.9699 38.9116 20.9212 38.3366 21.1489 37.3981C21.3823 36.4602 20.8045 35.5106 19.8649 35.28Z" fill="#7152F3"/>
<path fill-rule="evenodd" clip-rule="evenodd" d="M29.3437 25.0602C21.8846 16.8995 12.2893 9.21038 2.60056 3.83606C1.75426 3.36739 0.686123 3.67266 0.219196 4.51779C-0.247729 5.36293 0.0557991 6.42984 0.902101 6.89852C10.2698 12.0954 19.55 19.5318 26.7581 27.4228C27.4118 28.136 28.5208 28.1856 29.2328 27.5337C29.9449 26.8817 29.9974 25.7734 29.3437 25.0602Z" fill="#7152F3"/>
<path fill-rule="evenodd" clip-rule="evenodd" d="M37.4914 22.993C38.7229 15.5292 36.6218 7.836 33.651 1.04924C33.2599 0.163833 32.2269 -0.240069 31.3455 0.146895C30.4584 0.534443 30.0556 1.56811 30.4409 2.45352C33.149 8.63445 35.1568 15.6249 34.0362 22.4228C33.8786 23.3764 34.5265 24.2782 35.4778 24.4352C36.4292 24.5928 37.3338 23.9461 37.4914 22.993Z" fill="#7152F3"/>
</svg>
