<svg width="212" height="80" viewBox="0 0 212 80" fill="none" xmlns="http://www.w3.org/2000/svg">
<g clip-path="url(#clip0_415_24938)">
<path d="M106.465 64.4054C102.937 64.3191 100.026 62.7619 98.1666 59.5115C96.2611 56.1514 96.3441 52.7117 98.3757 49.4347C103.212 41.6356 108.112 33.8796 112.982 26.1037C113.978 24.5133 114.95 22.8997 115.993 21.3392C117.376 19.2049 119.538 17.6951 122.019 17.1314C124.499 16.5677 127.101 16.9946 129.271 18.3212C133.855 21.1467 135.389 27.0234 132.534 31.6551C126.698 41.1619 120.779 50.6222 114.778 60.0361C112.929 62.9479 110.124 64.3523 106.465 64.4054Z" fill="#C8C8C8"/>
<path d="M76.1579 64.4054C72.596 64.3191 69.7014 62.6922 67.8789 59.455C66.0001 56.095 66.1196 52.6486 68.1578 49.3716C73.3606 41.0224 78.5867 32.6854 83.836 24.3606C84.5 23.2848 85.1639 22.1825 85.8742 21.14C87.3148 19.052 89.5112 17.6066 91.9985 17.11C94.4858 16.6134 97.0687 17.1044 99.2004 18.4792C101.332 19.854 102.845 22.0045 103.419 24.4756C103.993 26.9466 103.583 29.5441 102.276 31.7181C96.4603 41.1109 90.5648 50.4706 84.6659 59.8202C82.7505 62.8515 79.9322 64.3523 76.1579 64.4054Z" fill="#C8C8C8"/>
<path d="M136.969 45.3674C142.337 45.3939 146.682 49.6604 146.672 54.893C146.672 60.2053 142.21 64.4884 136.793 64.422C131.375 64.3556 127.106 60.1356 127.113 54.8797C127.12 49.5475 131.482 45.3342 136.969 45.3674Z" fill="#C8C8C8"/>
</g>
<defs>
<clipPath id="clip0_415_24938">
<rect width="80.6818" height="50" fill="white" transform="translate(66 15)"/>
</clipPath>
</defs>
</svg>
