<svg viewBox="0 0 212 80" fill="none" xmlns="http://www.w3.org/2000/svg">
<g clip-path="url(#clip0_415_24943)">
<path d="M60.6356 26.937L50.317 20.9749L40 26.937V20.9749L50.3186 15.0128L60.6373 20.9749V26.937H60.6356Z" fill="#C8C8C8"/>
<path d="M45.4059 31.9427V45.0838C45.4059 48.4791 47.9395 50.1344 50.3186 50.1344C52.7178 50.1344 55.2331 48.4359 55.2331 45.039V31.9427H60.6373V45.3976C60.6373 48.5255 59.6544 50.9379 57.6903 52.5932C55.7229 54.2469 53.2673 55.0521 50.2722 55.0521C47.2803 55.0521 44.8231 54.2485 42.9038 52.5932C40.9829 50.9396 40 48.6169 40 45.5304V31.9427H45.4059ZM107.366 48.2748L111.38 50.5943C108.932 53.3869 105.666 55.0073 101.562 55.0073C98.0318 55.0073 95.128 53.9347 92.9397 51.8345C90.7515 49.7326 89.6358 46.9151 89.6358 43.3837V43.2077C89.6358 39.6298 90.7515 36.7691 92.9397 34.5792C95.1744 32.3893 97.9903 31.3167 101.429 31.3167C104.691 31.3167 107.369 32.3893 109.423 34.5792C111.523 36.7691 112.551 39.4521 112.551 42.6714C112.551 43.7091 112.433 44.8132 112.433 44.8132H94.9702C95.2641 48.2367 97.8641 50.4482 101.741 50.4482C103.866 50.4482 105.731 49.7326 107.366 48.2748ZM97.0954 37.307C95.9432 38.2036 95.2807 39.306 95.108 40.6143H107.095C107.045 39.3492 106.469 38.2484 105.403 37.3519C104.284 36.3673 102.989 35.8759 101.427 35.8759C99.7751 35.8759 98.2991 36.3673 97.0937 37.3054L97.0954 37.307ZM161.775 58.0439C159.583 63.2257 157.289 64.9872 153.771 64.9872H151.332V60.1923H153.304C154.515 60.1923 155.639 59.7374 156.711 57.2619L157.784 54.7831L148.536 31.9427H154.031L160.598 48.3927L167.344 31.9427H172.837L161.777 58.0439H161.775ZM81.6797 23.3175H87.0407V54.471H81.6797V52.3973C80.4577 53.5247 78.145 54.9625 74.4874 54.9625C71.3179 54.9625 68.6365 53.8451 66.4483 51.6087C64.3032 49.3291 63.2323 46.5581 63.2323 43.2043C63.2323 39.8522 64.3032 37.0812 66.4483 34.8448C68.6365 32.5669 71.3162 31.4496 74.4874 31.4496C77.1521 31.4496 79.9082 32.3943 81.6797 33.9832V23.3175ZM82.0831 43.2077C82.0831 41.2386 81.4107 39.5849 80.0709 38.2899C78.7759 36.9932 77.1239 36.3225 75.2013 36.3225C73.2803 36.3225 71.718 36.9932 70.423 38.2899C69.1728 39.5849 68.5469 41.2386 68.5469 43.2077C68.5469 45.1734 69.1745 46.8271 70.423 48.1238C71.718 49.4204 73.2803 50.0912 75.2013 50.0912C77.1239 50.0912 78.7759 49.4204 80.0709 48.1238C81.4107 46.8271 82.0831 45.1734 82.0831 43.2077ZM140.203 31.4977C144.865 31.4977 148.021 34.6506 148.021 40.5247V54.471H142.66V41.2834C142.66 38.2003 141.186 36.2777 138.639 36.2777C136.004 36.2777 134.174 38.4244 134.174 41.5075V54.4727H128.858V41.2867C128.858 38.2019 127.386 36.2793 124.837 36.2793C122.338 36.2793 120.461 38.4692 120.461 41.5092V54.4727H115.146V31.946H120.461V34.2886C121.409 33.1264 123.31 31.496 126.535 31.496C130.351 31.496 131.985 33.7075 132.564 34.815C134.015 33.1862 136.13 31.496 140.203 31.496V31.4977Z" fill="#C8C8C8"/>
</g>
<defs>
<clipPath id="clip0_415_24943">
<rect width="132.837" height="50" fill="white" transform="translate(40 15)"/>
</clipPath>
</defs>
</svg>
