<svg viewBox="0 0 212 80" fill="none" xmlns="http://www.w3.org/2000/svg">
  <g clip-path="url(#clip0_415_24925)">
    <path fill-rule="evenodd" clip-rule="evenodd"
      d="M77.5723 51.4955L79.5451 46.9112C81.676 48.5046 84.515 49.333 87.3162 49.333C89.3838 49.333 90.6927 48.5362 90.6927 47.3285C90.6611 43.952 78.3057 46.595 78.2109 38.1284C78.1793 33.8287 81.9984 30.5154 87.411 30.5154C90.6295 30.5154 93.8416 31.3121 96.1369 33.1268L94.2906 37.8059C92.1913 36.4654 89.5799 35.5106 87.0949 35.5106C85.4066 35.5106 84.2937 36.3073 84.2937 37.3254C84.3253 40.6387 96.7756 38.8239 96.902 46.9112C96.902 51.3058 93.1777 54.3978 87.8284 54.3978C83.908 54.3914 80.3102 53.4683 77.5723 51.4955ZM153.329 45.2545C152.343 46.9744 150.497 48.1505 148.36 48.1505C145.204 48.1505 142.662 45.6023 142.662 42.4534C142.662 39.3045 145.211 36.7563 148.36 36.7563C150.49 36.7563 152.343 37.9324 153.329 39.6523L158.774 36.6298C156.738 33.0004 152.817 30.5154 148.36 30.5154C141.764 30.5154 136.415 35.8647 136.415 42.4597C136.415 49.0547 141.764 54.4041 148.36 54.4041C152.849 54.4041 156.738 51.9507 158.774 48.2896L153.329 45.2545ZM99.6399 20.6071H106.456V53.9488H99.6399V20.6071ZM161.448 20.6071V53.9488H168.265V43.9457L176.352 53.9488H185.078L174.79 42.0677L184.313 30.9833H175.966L168.258 40.1834V20.6071H161.448Z"
      fill="#C8C8C8" />
    <path
      d="M126.709 45.3178C125.723 46.9428 123.687 48.1505 121.391 48.1505C118.236 48.1505 115.694 45.6023 115.694 42.4534C115.694 39.3045 118.243 36.7563 121.391 36.7563C123.687 36.7563 125.723 38.0272 126.709 39.6839V45.3178ZM126.709 30.9896V33.6959C125.596 31.8179 122.827 30.509 119.925 30.509C113.937 30.509 109.226 35.7952 109.226 42.4218C109.226 49.0484 113.937 54.3977 119.925 54.3977C122.821 54.3977 125.59 53.0952 126.709 51.2109V53.9172H133.526V30.9896H126.709Z"
      fill="#C8C8C8" />
    <path fill-rule="evenodd" clip-rule="evenodd"
      d="M35.4412 45.2862C35.4412 47.6131 33.5633 49.491 31.2364 49.491C28.9095 49.491 27.0315 47.6067 27.0315 45.2862C27.0315 42.9656 28.9095 41.0813 31.2364 41.0813H35.4412V45.2862ZM37.5405 45.2862C37.5405 42.9593 39.4185 41.0813 41.7454 41.0813C44.0723 41.0813 45.9502 42.9593 45.9502 45.2862V55.7952C45.9502 58.1221 44.0723 60 41.7454 60C39.4185 60 37.5405 58.1221 37.5405 55.7952V45.2862Z"
      fill="#C8C8C8" />
    <path fill-rule="evenodd" clip-rule="evenodd"
      d="M41.7455 28.4097C39.4186 28.4097 37.5406 26.5318 37.5406 24.2049C37.5406 21.878 39.4186 20 41.7455 20C44.0724 20 45.9504 21.878 45.9504 24.2049V28.4097H41.7455ZM41.7455 30.5406C44.0724 30.5406 45.9504 32.4186 45.9504 34.7455C45.9504 37.0724 44.0724 38.9504 41.7455 38.9504H31.2049C28.878 38.9504 27 37.0661 27 34.7455C27 32.4249 28.878 30.5406 31.2049 30.5406H41.7455Z"
      fill="#C8C8C8" />
    <path fill-rule="evenodd" clip-rule="evenodd"
      d="M58.5903 34.7455C58.5903 32.4186 60.4683 30.5406 62.7952 30.5406C65.1221 30.5406 67 32.4186 67 34.7455C67 37.0724 65.1221 38.9504 62.7952 38.9504H58.5903V34.7455ZM56.491 34.7455C56.491 37.0724 54.6131 38.9504 52.2862 38.9504C49.9593 38.9504 48.0813 37.0724 48.0813 34.7455V24.2049C48.0813 21.878 49.9593 20 52.2862 20C54.6131 20 56.491 21.878 56.491 24.2049V34.7455Z"
      fill="#C8C8C8" />
    <path fill-rule="evenodd" clip-rule="evenodd"
      d="M52.2862 51.5903C54.6131 51.5903 56.491 53.4683 56.491 55.7952C56.491 58.1221 54.6131 60 52.2862 60C49.9593 60 48.0813 58.1221 48.0813 55.7952V51.5903H52.2862ZM52.2862 49.491C49.9593 49.491 48.0813 47.6131 48.0813 45.2862C48.0813 42.9593 49.9593 41.0813 52.2862 41.0813H62.8268C65.1537 41.0813 67.0317 42.9593 67.0317 45.2862C67.0317 47.6131 65.1537 49.491 62.8268 49.491H52.2862Z"
      fill="#C8C8C8" />
  </g>
  <defs>
    <clipPath id="clip0_415_24925">
      <rect width="158.078" height="40" fill="white" transform="translate(27 20)" />
    </clipPath>
  </defs>
</svg>