<svg viewBox="0 0 212 80" fill="none" xmlns="http://www.w3.org/2000/svg">
<g clip-path="url(#clip0_415_24934)">
<path d="M131.168 50.9108C133.25 50.9609 135.256 50.1834 136.761 48.7286L139.52 51.7134C137.689 53.5946 135.156 54.9992 131.218 54.9992C124.446 54.9992 120.081 50.5095 120.081 44.4395C120.081 38.4197 124.672 33.8797 130.591 33.8797C137.313 33.8797 141.101 38.9966 140.775 46.0698H124.922C125.474 49.0296 127.556 50.9108 131.168 50.9108ZM135.984 42.7088C135.557 39.9748 133.927 37.9431 130.641 37.9431C127.581 37.9431 125.474 39.6738 124.922 42.7088H135.984ZM27 50.685L39.2152 38.2692H27.2759V34.3814H44.8588V38.3695L32.6687 50.7603H45.0344V54.6481H27V50.685ZM58.7294 50.9108C60.8113 50.9609 62.8179 50.1834 64.3229 48.7286L67.0819 51.7134C65.2509 53.5946 62.7176 54.9992 58.7796 54.9992C52.0324 54.9992 47.643 50.5095 47.643 44.4395C47.643 38.4197 52.2331 33.8797 58.1525 33.8797C64.8747 33.8797 68.6621 38.9966 68.3361 46.0698H52.4839C53.0608 49.0296 55.1176 50.9108 58.7294 50.9108ZM63.5704 42.7088C63.144 39.9748 61.5136 37.9431 58.2278 37.9431C55.1677 37.9431 53.0608 39.6738 52.509 42.7088H63.5704ZM94.7229 44.4646C94.7229 37.9682 99.5639 33.9299 104.906 33.9299C107.59 33.9299 110.149 35.1088 111.654 36.9649V25.0005H115.968V54.5979H111.654V51.7887C110.099 53.7702 107.54 54.9992 104.856 54.9992C99.6893 54.9992 94.7229 50.9108 94.7229 44.4646ZM111.904 44.4144C111.904 40.8025 109.17 37.8428 105.483 37.8428C101.871 37.8428 99.0622 40.7273 99.0622 44.4144C99.0622 48.1015 101.871 51.0111 105.483 51.0111C109.17 51.0362 111.904 48.0764 111.904 44.4144ZM143.584 50.2837L147.497 48.252C148.55 50.1332 150.557 51.2619 152.714 51.2118C155.147 51.2118 156.426 49.9576 156.426 48.5279C156.426 46.8976 154.068 46.5464 151.51 46.0197C148.048 45.2923 144.462 44.1636 144.462 39.9748C144.462 36.7642 147.522 33.8045 152.313 33.8546C156.1 33.8546 158.909 35.3596 160.489 37.7926L156.852 39.7992C155.924 38.3695 154.319 37.4916 152.287 37.4916C149.955 37.4916 148.776 38.6203 148.776 39.9246C148.776 41.3794 150.657 41.7807 153.592 42.4329C156.928 43.1603 160.715 44.2639 160.715 48.4778C160.715 51.287 158.282 55.0494 152.488 54.9992C148.274 54.9992 145.289 53.2936 143.584 50.2837ZM172.429 45.5933L169.018 49.3306V54.5979H164.703V25.0005H169.018V44.3642L178.173 34.3312H183.415L175.489 43.0098L183.641 54.5979H178.75L172.429 45.5933ZM81.68 33.9048C76.5381 33.9048 72.249 37.2408 72.249 42.7339V54.5979H76.6635V43.3108C76.6635 39.9748 78.5698 37.9933 81.8305 37.9933C85.0912 37.9933 86.7216 39.9748 86.7216 43.3108V54.5979H91.111V42.7589C91.111 37.2408 86.8219 33.9048 81.68 33.9048Z" fill="#C8C8C8"/>
<path d="M182.211 31.6977C182.813 31.0957 183.816 31.0957 184.418 31.6977C185.02 32.2997 185.02 33.303 184.418 33.905C183.816 34.5069 182.813 34.5069 182.211 33.905C181.584 33.303 181.584 32.3248 182.211 31.6977ZM184.142 33.6541C184.594 33.1776 184.569 32.4251 184.117 31.9736C183.641 31.5221 182.888 31.5472 182.437 31.9987C181.985 32.4753 181.985 33.2027 182.462 33.6541C182.938 34.1307 183.691 34.1056 184.142 33.6541ZM183.44 31.798L183.917 32.2746C184.218 32.5756 184.218 32.9267 184.017 33.1274C183.866 33.303 183.616 33.3532 183.415 33.2528L183.264 33.8548L182.938 33.5287L183.164 32.701L183.29 32.8264C183.365 32.9267 183.54 32.9518 183.641 32.8766L183.666 32.8515C183.766 32.7512 183.741 32.5756 183.641 32.5003L183.616 32.4753L183.44 32.2997L182.562 33.1776L182.286 32.9017L183.44 31.798Z" fill="#C8C8C8"/>
</g>
<defs>
<clipPath id="clip0_415_24934">
<rect width="157.895" height="30" fill="white" transform="translate(27 25)"/>
</clipPath>
</defs>
</svg>
