<svg viewBox="0 0 212 80" fill="none" xmlns="http://www.w3.org/2000/svg">
<g clip-path="url(#clip0_415_24947)">
<path d="M92.0206 44.2646H104.728L98.0088 33.4545L85.6767 52.9996H80.0645L95.0641 29.5216C95.7161 28.5732 96.8031 28 98.0088 28C99.1747 28 100.262 28.5533 100.894 29.4821L115.953 52.9996H110.341L107.693 48.6321H94.8275L92.021 44.2646H92.0206ZM150.32 48.6318V28.237H145.558V50.6281C145.558 51.2407 145.795 51.8338 146.249 52.2882C146.704 52.7427 147.316 52.9996 147.988 52.9996H169.707L172.514 48.6321H150.32L150.32 48.6318ZM71.5267 44.9757C76.1514 44.9757 79.9063 41.2407 79.9063 36.6163C79.9063 31.9915 76.1514 28.2366 71.5267 28.2366H50.691V53H55.4521V32.6049H71.2108C73.4242 32.6049 75.2027 34.4036 75.2027 36.617C75.2027 38.8301 73.4242 40.6285 71.2108 40.6285L57.7842 40.6089L72.0011 53H78.9181L69.3531 44.9764H71.5271L71.5267 44.9757ZM21.3836 52.9996C14.5476 53 9 47.4663 9 40.6285C9 33.7903 14.5476 28.2374 21.3836 28.2374H35.7766C42.614 28.2374 48.1575 33.7903 48.1575 40.6285C48.1575 47.4663 42.614 52.9996 35.7762 52.9996H21.3836ZM35.4566 48.6321C39.8853 48.6321 43.4723 45.0549 43.4723 40.6281C43.4723 36.2016 39.8853 32.6049 35.4566 32.6049H21.7021C17.2749 32.6049 13.686 36.2016 13.686 40.6285C13.686 45.0549 17.2749 48.6321 21.7017 48.6321H35.4562H35.4566ZM125.894 52.9996C119.056 52.9996 113.503 47.4663 113.503 40.6285C113.503 33.7903 119.056 28.2374 125.894 28.2374H142.989L140.202 32.6049H126.21C121.783 32.6049 118.186 36.2016 118.186 40.6285C118.186 45.0549 121.783 48.6321 126.21 48.6321H143.384L140.577 52.9996H125.894ZM184.134 48.6321C180.478 48.6321 177.376 46.1817 176.427 42.8021H196.782L199.589 38.4346H176.427C177.376 35.0748 180.478 32.6049 184.134 32.6049H198.107L200.932 28.2366H183.818C176.98 28.2366 171.427 33.7899 171.427 40.6277C171.427 47.4659 176.98 52.9992 183.818 52.9992H198.502L201.308 48.6321H184.134H184.134Z" fill="#C8C8C8"/>
</g>
<defs>
<clipPath id="clip0_415_24947">
<rect width="191.131" height="25" fill="white" transform="translate(10 28)"/>
</clipPath>
</defs>
</svg>
